<svg width="638" height="168" viewBox="0 0 638 168" fill="none" xmlns="http://www.w3.org/2000/svg">
<rect x="24" y="13" width="190" height="142" rx="12" fill="#EAEEF6"/>
<path d="M65.684 45.288C65.54 44.364 65.186 43.686 64.622 43.254C64.07 42.822 63.332 42.606 62.408 42.606C61.184 42.606 60.254 43.02 59.618 43.848C58.994 44.676 58.682 45.936 58.682 47.628C58.682 50.988 59.924 52.668 62.408 52.668C63.332 52.668 64.07 52.452 64.622 52.02C65.186 51.576 65.546 50.898 65.702 49.986H67.466C67.286 51.342 66.752 52.38 65.864 53.1C64.988 53.82 63.836 54.18 62.408 54.18C60.668 54.18 59.312 53.622 58.34 52.506C57.38 51.378 56.9 49.752 56.9 47.628C56.9 45.504 57.38 43.884 58.34 42.768C59.312 41.652 60.668 41.094 62.408 41.094C63.74 41.094 64.862 41.454 65.774 42.174C66.698 42.882 67.256 43.92 67.448 45.288H65.684ZM75.7596 44.874H77.4696L74.3196 55.404C74.0676 56.244 73.6956 56.826 73.2036 57.15C72.7236 57.474 72.1056 57.636 71.3496 57.636H69.9816V56.178H71.2596C71.7156 56.178 72.0636 56.094 72.3036 55.926C72.5556 55.77 72.7476 55.452 72.8796 54.972L75.7596 44.874ZM70.3056 44.874L72.3756 51.156C72.5436 51.672 72.6816 52.014 72.7896 52.182C72.9096 52.35 73.0776 52.434 73.2936 52.434H74.5176V53.946H73.0956C72.6756 53.946 72.3396 53.88 72.0876 53.748C71.8356 53.616 71.6136 53.388 71.4216 53.064C71.2416 52.728 71.0496 52.26 70.8456 51.66L68.5596 44.874H70.3056ZM80.9096 41.094V54H79.1996V41.094H80.9096ZM83.8616 54.18C83.0336 54.18 82.3616 53.976 81.8456 53.568C81.3296 53.148 80.9456 52.584 80.6936 51.876C80.4536 51.156 80.3336 50.34 80.3336 49.428C80.3336 48.516 80.4536 47.706 80.6936 46.998C80.9456 46.278 81.3296 45.714 81.8456 45.306C82.3616 44.886 83.0336 44.676 83.8616 44.676C85.0736 44.676 86.0336 45.072 86.7416 45.864C87.4616 46.644 87.8216 47.832 87.8216 49.428C87.8216 50.988 87.4736 52.17 86.7776 52.974C86.0816 53.778 85.1096 54.18 83.8616 54.18ZM83.4656 52.74C84.4016 52.74 85.0736 52.452 85.4816 51.876C85.9016 51.3 86.1116 50.484 86.1116 49.428C86.1116 48.372 85.9016 47.556 85.4816 46.98C85.0736 46.404 84.4016 46.116 83.4656 46.116C82.5656 46.116 81.9116 46.404 81.5036 46.98C81.1076 47.556 80.9096 48.372 80.9096 49.428C80.9096 50.484 81.1076 51.3 81.5036 51.876C81.9116 52.452 82.5656 52.74 83.4656 52.74ZM90.2638 48.69H96.1678C96.1558 47.778 95.9398 47.118 95.5198 46.71C95.1118 46.29 94.5058 46.08 93.7018 46.08C92.7898 46.08 92.1238 46.356 91.7038 46.908C91.2838 47.448 91.0738 48.27 91.0738 49.374C91.0738 50.502 91.2778 51.354 91.6858 51.93C92.1058 52.494 92.8198 52.776 93.8278 52.776C94.5118 52.776 95.0038 52.674 95.3038 52.47C95.6038 52.254 95.8138 51.96 95.9338 51.588H97.7158C97.5478 52.356 97.1338 52.98 96.4738 53.46C95.8138 53.94 94.9318 54.18 93.8278 54.18C92.3638 54.18 91.2538 53.766 90.4978 52.938C89.7418 52.098 89.3638 50.928 89.3638 49.428C89.3638 47.892 89.7418 46.716 90.4978 45.9C91.2538 45.084 92.3218 44.676 93.7018 44.676C94.4698 44.676 95.1658 44.832 95.7898 45.144C96.4138 45.456 96.9118 45.96 97.2838 46.656C97.6678 47.34 97.8598 48.252 97.8598 49.392V49.95H90.2458L90.2638 48.69ZM101.669 54H99.9594V44.874H101.669V46.44C102.125 45.396 102.917 44.874 104.045 44.874H104.837V46.314H103.775C102.371 46.314 101.669 47.082 101.669 48.618V54ZM117.944 44.442C117.872 43.806 117.608 43.344 117.152 43.056C116.696 42.756 116.06 42.606 115.244 42.606C114.344 42.606 113.678 42.78 113.246 43.128C112.814 43.476 112.598 43.968 112.598 44.604C112.598 45.06 112.73 45.42 112.994 45.684C113.258 45.948 113.576 46.146 113.948 46.278C114.32 46.41 114.656 46.524 114.956 46.62L116.198 46.962C116.546 47.058 116.93 47.184 117.35 47.34C117.782 47.496 118.19 47.706 118.574 47.97C118.97 48.234 119.294 48.57 119.546 48.978C119.798 49.386 119.924 49.896 119.924 50.508C119.924 51.6 119.534 52.494 118.754 53.19C117.974 53.886 116.792 54.234 115.208 54.234C113.72 54.234 112.586 53.922 111.806 53.298C111.026 52.662 110.594 51.798 110.51 50.706H112.31C112.37 51.438 112.658 51.96 113.174 52.272C113.69 52.572 114.368 52.722 115.208 52.722C116.144 52.722 116.87 52.53 117.386 52.146C117.902 51.762 118.16 51.204 118.16 50.472C118.16 50.052 118.046 49.722 117.818 49.482C117.602 49.23 117.314 49.032 116.954 48.888C116.594 48.732 116.192 48.594 115.748 48.474L114.182 48.024C113.15 47.736 112.334 47.328 111.734 46.8C111.146 46.272 110.852 45.564 110.852 44.676C110.852 43.92 111.038 43.278 111.41 42.75C111.782 42.21 112.304 41.802 112.976 41.526C113.648 41.238 114.422 41.094 115.298 41.094C116.654 41.094 117.71 41.406 118.466 42.03C119.222 42.642 119.624 43.446 119.672 44.442H117.944ZM122.115 48.69H128.019C128.007 47.778 127.791 47.118 127.371 46.71C126.963 46.29 126.357 46.08 125.553 46.08C124.641 46.08 123.975 46.356 123.555 46.908C123.135 47.448 122.925 48.27 122.925 49.374C122.925 50.502 123.129 51.354 123.537 51.93C123.957 52.494 124.671 52.776 125.679 52.776C126.363 52.776 126.855 52.674 127.155 52.47C127.455 52.254 127.665 51.96 127.785 51.588H129.567C129.399 52.356 128.985 52.98 128.325 53.46C127.665 53.94 126.783 54.18 125.679 54.18C124.215 54.18 123.105 53.766 122.349 52.938C121.593 52.098 121.215 50.928 121.215 49.428C121.215 47.892 121.593 46.716 122.349 45.9C123.105 45.084 124.173 44.676 125.553 44.676C126.321 44.676 127.017 44.832 127.641 45.144C128.265 45.456 128.763 45.96 129.135 46.656C129.519 47.34 129.711 48.252 129.711 49.392V49.95H122.097L122.115 48.69ZM135.681 54.18C134.193 54.18 133.077 53.766 132.333 52.938C131.601 52.11 131.235 50.94 131.235 49.428C131.235 47.916 131.613 46.746 132.369 45.918C133.125 45.09 134.217 44.676 135.645 44.676C136.365 44.676 137.007 44.808 137.571 45.072C138.135 45.324 138.591 45.678 138.939 46.134C139.287 46.578 139.485 47.094 139.533 47.682H137.823C137.775 47.25 137.589 46.884 137.265 46.584C136.941 46.284 136.407 46.134 135.663 46.134C134.643 46.134 133.935 46.428 133.539 47.016C133.143 47.592 132.945 48.396 132.945 49.428C132.945 50.46 133.143 51.27 133.539 51.858C133.935 52.434 134.643 52.722 135.663 52.722C136.371 52.722 136.893 52.596 137.229 52.344C137.577 52.08 137.781 51.708 137.841 51.228H139.569C139.521 51.756 139.335 52.248 139.011 52.704C138.699 53.148 138.261 53.508 137.697 53.784C137.133 54.048 136.461 54.18 135.681 54.18ZM147.505 44.874H149.215V54H147.505V52.668C147.217 53.1 146.869 53.46 146.461 53.748C146.053 54.036 145.501 54.18 144.805 54.18C143.821 54.18 143.035 53.904 142.447 53.352C141.871 52.8 141.583 51.87 141.583 50.562V44.874H143.275V50.508C143.275 51.288 143.443 51.852 143.779 52.2C144.115 52.548 144.607 52.722 145.255 52.722C145.963 52.722 146.515 52.53 146.911 52.146C147.307 51.75 147.505 51.114 147.505 50.238V44.874ZM153.613 54H151.903V44.874H153.613V46.44C154.069 45.396 154.861 44.874 155.989 44.874H156.781V46.314H155.719C154.315 46.314 153.613 47.082 153.613 48.618V54ZM159.853 44.874V54H158.143V44.874H159.853ZM158.053 41.094H159.943V43.002H158.053V41.094ZM166.626 46.314H164.61V52.56H166.626V54H165.348C164.628 54 164.04 53.838 163.584 53.514C163.128 53.19 162.9 52.614 162.9 51.786V46.314H161.352V44.874H162.9V42.156H164.61V44.874H166.626V46.314ZM174.514 44.874H176.224L173.074 55.404C172.822 56.244 172.45 56.826 171.958 57.15C171.478 57.474 170.86 57.636 170.104 57.636H168.736V56.178H170.014C170.47 56.178 170.818 56.094 171.058 55.926C171.31 55.77 171.502 55.452 171.634 54.972L174.514 44.874ZM169.06 44.874L171.13 51.156C171.298 51.672 171.436 52.014 171.544 52.182C171.664 52.35 171.832 52.434 172.048 52.434H173.272V53.946H171.85C171.43 53.946 171.094 53.88 170.842 53.748C170.59 53.616 170.368 53.388 170.176 53.064C169.996 52.728 169.804 52.26 169.6 51.66L167.314 44.874H169.06ZM68.114 71.628C68.114 73.74 67.634 75.36 66.674 76.488C65.714 77.616 64.328 78.18 62.516 78.18C60.692 78.18 59.3 77.616 58.34 76.488C57.38 75.36 56.9 73.74 56.9 71.628C56.9 69.516 57.38 67.902 58.34 66.786C59.3 65.658 60.692 65.094 62.516 65.094C64.328 65.094 65.714 65.658 66.674 66.786C67.634 67.902 68.114 69.516 68.114 71.628ZM66.332 71.628C66.332 69.912 66.014 68.646 65.378 67.83C64.754 67.014 63.8 66.606 62.516 66.606C61.232 66.606 60.272 67.014 59.636 67.83C59 68.646 58.682 69.912 58.682 71.628C58.682 73.344 59 74.616 59.636 75.444C60.272 76.26 61.232 76.668 62.516 76.668C63.8 76.668 64.754 76.26 65.378 75.444C66.014 74.616 66.332 73.344 66.332 71.628ZM68.5442 65.274H78.3182V66.768H74.3222V78H72.5582V66.768H68.5442V65.274ZM83.4569 67.488H83.3489L79.5869 78H77.8229L82.5569 65.274H84.3209L89.0549 78H87.2189L83.4569 67.488ZM86.6609 74.616H80.1629V73.068H86.6609V74.616ZM61.994 91.488H61.886L58.124 102H56.36L61.094 89.274H62.858L67.592 102H65.756L61.994 91.488ZM65.198 98.616H58.7V97.068H65.198V98.616ZM78.7101 89.274V97.626C78.7101 98.538 78.5361 99.342 78.1881 100.038C77.8401 100.734 77.3061 101.274 76.5861 101.658C75.8661 102.042 74.9421 102.234 73.8141 102.234C72.6981 102.234 71.7741 102.042 71.0421 101.658C70.3221 101.274 69.7881 100.734 69.4401 100.038C69.0921 99.342 68.9181 98.538 68.9181 97.626V89.274H70.7001V97.482C70.7001 98.142 70.7961 98.718 70.9881 99.21C71.1801 99.69 71.4981 100.062 71.9421 100.326C72.3981 100.59 73.0221 100.722 73.8141 100.722C74.6061 100.722 75.2301 100.59 75.6861 100.326C76.1421 100.062 76.4661 99.69 76.6581 99.21C76.8501 98.718 76.9461 98.142 76.9461 97.482V89.274H78.7101ZM80.1282 89.274H89.9022V90.768H85.9062V102H84.1422V90.768H80.1282V89.274ZM101.565 95.628C101.565 97.74 101.085 99.36 100.125 100.488C99.1652 101.616 97.7792 102.18 95.9672 102.18C94.1432 102.18 92.7512 101.616 91.7912 100.488C90.8312 99.36 90.3512 97.74 90.3512 95.628C90.3512 93.516 90.8312 91.902 91.7912 90.786C92.7512 89.658 94.1432 89.094 95.9672 89.094C97.7792 89.094 99.1652 89.658 100.125 90.786C101.085 91.902 101.565 93.516 101.565 95.628ZM99.7832 95.628C99.7832 93.912 99.4652 92.646 98.8292 91.83C98.2052 91.014 97.2512 90.606 95.9672 90.606C94.6832 90.606 93.7232 91.014 93.0872 91.83C92.4512 92.646 92.1332 93.912 92.1332 95.628C92.1332 97.344 92.4512 98.616 93.0872 99.444C93.7232 100.26 94.6832 100.668 95.9672 100.668C97.2512 100.668 98.2052 100.26 98.8292 99.444C99.4652 98.616 99.7832 97.344 99.7832 95.628ZM110.667 92.442C110.595 91.806 110.331 91.344 109.875 91.056C109.419 90.756 108.783 90.606 107.967 90.606C107.067 90.606 106.401 90.78 105.969 91.128C105.537 91.476 105.321 91.968 105.321 92.604C105.321 93.06 105.453 93.42 105.717 93.684C105.981 93.948 106.299 94.146 106.671 94.278C107.043 94.41 107.379 94.524 107.679 94.62L108.921 94.962C109.269 95.058 109.653 95.184 110.073 95.34C110.505 95.496 110.913 95.706 111.297 95.97C111.693 96.234 112.017 96.57 112.269 96.978C112.521 97.386 112.647 97.896 112.647 98.508C112.647 99.6 112.257 100.494 111.477 101.19C110.697 101.886 109.515 102.234 107.931 102.234C106.443 102.234 105.309 101.922 104.529 101.298C103.749 100.662 103.317 99.798 103.233 98.706H105.033C105.093 99.438 105.381 99.96 105.897 100.272C106.413 100.572 107.091 100.722 107.931 100.722C108.867 100.722 109.593 100.53 110.109 100.146C110.625 99.762 110.883 99.204 110.883 98.472C110.883 98.052 110.769 97.722 110.541 97.482C110.325 97.23 110.037 97.032 109.677 96.888C109.317 96.732 108.915 96.594 108.471 96.474L106.905 96.024C105.873 95.736 105.057 95.328 104.457 94.8C103.869 94.272 103.575 93.564 103.575 92.676C103.575 91.92 103.761 91.278 104.133 90.75C104.505 90.21 105.027 89.802 105.699 89.526C106.371 89.238 107.145 89.094 108.021 89.094C109.377 89.094 110.433 89.406 111.189 90.03C111.945 90.642 112.347 91.446 112.395 92.442H110.667ZM118.965 91.488H118.857L115.095 102H113.331L118.065 89.274H119.829L124.563 102H122.727L118.965 91.488ZM122.169 98.616H115.671V97.068H122.169V98.616ZM132.556 96.114L135.85 102H133.816L130.756 96.42L132.556 96.114ZM130.72 95.556C131.5 95.556 132.088 95.472 132.484 95.304C132.88 95.124 133.15 94.86 133.294 94.512C133.438 94.164 133.51 93.726 133.51 93.198C133.51 92.658 133.438 92.214 133.294 91.866C133.15 91.506 132.88 91.242 132.484 91.074C132.088 90.894 131.5 90.804 130.72 90.804H128.146V95.556H130.72ZM130.81 97.086H128.146V102H126.364V89.274H130.792C131.92 89.274 132.808 89.442 133.456 89.778C134.116 90.102 134.584 90.558 134.86 91.146C135.136 91.734 135.274 92.418 135.274 93.198C135.274 93.942 135.148 94.608 134.896 95.196C134.656 95.784 134.212 96.246 133.564 96.582C132.928 96.918 132.01 97.086 130.81 97.086ZM61.994 115.488H61.886L58.124 126H56.36L61.094 113.274H62.858L67.592 126H65.756L61.994 115.488ZM65.198 122.616H58.7V121.068H65.198V122.616ZM74.6131 121.032H69.2131V119.538H74.6131V121.032ZM84.0889 116.442C84.0169 115.806 83.7529 115.344 83.2969 115.056C82.8409 114.756 82.2049 114.606 81.3889 114.606C80.4889 114.606 79.8229 114.78 79.3909 115.128C78.9589 115.476 78.7429 115.968 78.7429 116.604C78.7429 117.06 78.8749 117.42 79.1389 117.684C79.4029 117.948 79.7209 118.146 80.0929 118.278C80.4649 118.41 80.8009 118.524 81.1009 118.62L82.3429 118.962C82.6909 119.058 83.0749 119.184 83.4949 119.34C83.9269 119.496 84.3349 119.706 84.7189 119.97C85.1149 120.234 85.4389 120.57 85.6909 120.978C85.9429 121.386 86.0689 121.896 86.0689 122.508C86.0689 123.6 85.6789 124.494 84.8989 125.19C84.1189 125.886 82.9369 126.234 81.3529 126.234C79.8649 126.234 78.7309 125.922 77.9509 125.298C77.1709 124.662 76.7389 123.798 76.6549 122.706H78.4549C78.5149 123.438 78.8029 123.96 79.3189 124.272C79.8349 124.572 80.5129 124.722 81.3529 124.722C82.2889 124.722 83.0149 124.53 83.5309 124.146C84.0469 123.762 84.3049 123.204 84.3049 122.472C84.3049 122.052 84.1909 121.722 83.9629 121.482C83.7469 121.23 83.4589 121.032 83.0989 120.888C82.7389 120.732 82.3369 120.594 81.8929 120.474L80.3269 120.024C79.2949 119.736 78.4789 119.328 77.8789 118.8C77.2909 118.272 76.9969 117.564 76.9969 116.676C76.9969 115.92 77.1829 115.278 77.5549 114.75C77.9269 114.21 78.4489 113.802 79.1209 113.526C79.7929 113.238 80.5669 113.094 81.4429 113.094C82.7989 113.094 83.8549 113.406 84.6109 114.03C85.3669 114.642 85.7689 115.446 85.8169 116.442H84.0889ZM88.0963 113.274H92.4703C93.5743 113.274 94.4503 113.454 95.0983 113.814C95.7583 114.162 96.2323 114.642 96.5203 115.254C96.8083 115.854 96.9523 116.544 96.9523 117.324C96.9523 118.092 96.8083 118.788 96.5203 119.412C96.2323 120.024 95.7643 120.51 95.1163 120.87C94.4683 121.23 93.5923 121.41 92.4883 121.41H89.8783V126H88.0963V113.274ZM92.4163 119.88C93.1843 119.88 93.7663 119.778 94.1623 119.574C94.5583 119.37 94.8283 119.076 94.9723 118.692C95.1163 118.308 95.1883 117.852 95.1883 117.324C95.1883 116.784 95.1163 116.328 94.9723 115.956C94.8403 115.584 94.5703 115.302 94.1623 115.11C93.7663 114.906 93.1783 114.804 92.3983 114.804H89.8783V119.88H92.4163ZM102.202 126H100.42V113.274H102.202V126ZM98.4756 114.768V113.274H104.128V114.768H98.4756ZM98.4756 126V124.506H104.128V126H98.4756ZM114.85 117.288C114.706 116.364 114.352 115.686 113.788 115.254C113.236 114.822 112.498 114.606 111.574 114.606C110.35 114.606 109.42 115.02 108.784 115.848C108.16 116.676 107.848 117.936 107.848 119.628C107.848 122.988 109.09 124.668 111.574 124.668C112.498 124.668 113.236 124.452 113.788 124.02C114.352 123.576 114.712 122.898 114.868 121.986H116.632C116.452 123.342 115.918 124.38 115.03 125.1C114.154 125.82 113.002 126.18 111.574 126.18C109.834 126.18 108.478 125.622 107.506 124.506C106.546 123.378 106.066 121.752 106.066 119.628C106.066 117.504 106.546 115.884 107.506 114.768C108.478 113.652 109.834 113.094 111.574 113.094C112.906 113.094 114.028 113.454 114.94 114.174C115.864 114.882 116.422 115.92 116.614 117.288H114.85ZM118.876 113.274H126.634V114.768H120.658V118.872H126.22V120.348H120.658V124.506H126.724V126H118.876V113.274Z" fill="#222222"/>
<path d="M40 48.5714L43.1154 52L49 44" stroke="#222222" stroke-width="2" stroke-linejoin="bevel"/>
<path d="M40 96.1429L43.1154 100L49 91" stroke="#222222" stroke-width="2" stroke-linejoin="bevel"/>
<path d="M40 73.1429L43.1154 77L49 68" stroke="#222222" stroke-width="2" stroke-linejoin="bevel"/>
<path d="M40 120.571L43.1154 124L49 116" stroke="#222222" stroke-width="2" stroke-linejoin="bevel"/>
<rect x="360" y="13" width="278" height="33" rx="16.5" fill="#EAEEF6"/>
<path d="M381.44 23.274H383.222V34.452H389.054V36H381.44V23.274ZM393.849 36.18C392.469 36.18 391.395 35.772 390.627 34.956C389.871 34.14 389.493 32.97 389.493 31.446C389.493 29.922 389.871 28.746 390.627 27.918C391.395 27.09 392.469 26.676 393.849 26.676C395.217 26.676 396.285 27.09 397.053 27.918C397.821 28.734 398.205 29.91 398.205 31.446C398.205 32.982 397.821 34.158 397.053 34.974C396.297 35.778 395.229 36.18 393.849 36.18ZM393.849 34.722C394.773 34.722 395.445 34.44 395.865 33.876C396.285 33.3 396.495 32.49 396.495 31.446C396.495 30.402 396.285 29.592 395.865 29.016C395.445 28.428 394.773 28.134 393.849 28.134C392.925 28.134 392.253 28.428 391.833 29.016C391.413 29.592 391.203 30.402 391.203 31.446C391.203 32.49 391.413 33.3 391.833 33.876C392.253 34.44 392.925 34.722 393.849 34.722ZM403.718 35.874C402.482 35.874 401.51 35.478 400.802 34.686C400.106 33.894 399.758 32.76 399.758 31.284C399.758 29.76 400.112 28.614 400.82 27.846C401.54 27.066 402.506 26.676 403.718 26.676C404.546 26.676 405.218 26.88 405.734 27.288C406.25 27.696 406.628 28.248 406.868 28.944C407.108 29.64 407.228 30.42 407.228 31.284C407.228 32.136 407.108 32.91 406.868 33.606C406.628 34.302 406.25 34.854 405.734 35.262C405.218 35.67 404.546 35.874 403.718 35.874ZM404.114 34.434C405.014 34.434 405.662 34.152 406.058 33.588C406.466 33.024 406.67 32.256 406.67 31.284C406.67 30.3 406.466 29.526 406.058 28.962C405.662 28.398 405.014 28.116 404.114 28.116C403.178 28.116 402.5 28.398 402.08 28.962C401.672 29.526 401.468 30.3 401.468 31.284C401.468 32.256 401.672 33.024 402.08 33.588C402.5 34.152 403.178 34.434 404.114 34.434ZM406.706 26.874H408.38V36H406.67V29.016L406.706 28.872V26.874ZM408.38 35.73C408.392 37.11 408.074 38.142 407.426 38.826C406.778 39.522 405.758 39.87 404.366 39.87C402.974 39.87 401.972 39.612 401.36 39.096C400.76 38.58 400.418 37.884 400.334 37.008H402.116C402.152 37.32 402.23 37.584 402.35 37.8C402.47 38.016 402.686 38.172 402.998 38.268C403.31 38.376 403.766 38.43 404.366 38.43C405.014 38.43 405.5 38.334 405.824 38.142C406.16 37.95 406.388 37.656 406.508 37.26C406.628 36.864 406.682 36.354 406.67 35.73H408.38ZM412.75 26.874V36H411.04V26.874H412.75ZM410.95 23.094H412.84V25.002H410.95V23.094ZM420.546 29.358C420.474 28.902 420.294 28.584 420.006 28.404C419.718 28.212 419.292 28.116 418.728 28.116C418.14 28.116 417.684 28.218 417.36 28.422C417.036 28.626 416.874 28.902 416.874 29.25C416.874 29.586 416.994 29.85 417.234 30.042C417.486 30.222 417.87 30.378 418.386 30.51L419.772 30.852C421.512 31.26 422.382 32.118 422.382 33.426C422.382 34.242 422.064 34.908 421.428 35.424C420.792 35.928 419.844 36.18 418.584 36.18C416.304 36.18 415.062 35.25 414.858 33.39H416.64C416.7 33.858 416.868 34.2 417.144 34.416C417.432 34.62 417.9 34.722 418.548 34.722C419.328 34.722 419.868 34.614 420.168 34.398C420.48 34.182 420.636 33.888 420.636 33.516C420.636 32.88 420.15 32.448 419.178 32.22L417.792 31.878C416.052 31.458 415.182 30.612 415.182 29.34C415.182 28.524 415.488 27.876 416.1 27.396C416.724 26.916 417.6 26.676 418.728 26.676C419.796 26.676 420.63 26.91 421.23 27.378C421.83 27.834 422.154 28.494 422.202 29.358H420.546ZM428.681 28.314H426.665V34.56H428.681V36H427.403C426.683 36 426.095 35.838 425.639 35.514C425.183 35.19 424.955 34.614 424.955 33.786V28.314H423.407V26.874H424.955V24.156H426.665V26.874H428.681V28.314ZM432.262 26.874V36H430.552V26.874H432.262ZM430.462 23.094H432.352V25.002H430.462V23.094ZM438.833 36.18C437.345 36.18 436.229 35.766 435.485 34.938C434.753 34.11 434.387 32.94 434.387 31.428C434.387 29.916 434.765 28.746 435.521 27.918C436.277 27.09 437.369 26.676 438.797 26.676C439.517 26.676 440.159 26.808 440.723 27.072C441.287 27.324 441.743 27.678 442.091 28.134C442.439 28.578 442.637 29.094 442.685 29.682H440.975C440.927 29.25 440.741 28.884 440.417 28.584C440.093 28.284 439.559 28.134 438.815 28.134C437.795 28.134 437.087 28.428 436.691 29.016C436.295 29.592 436.097 30.396 436.097 31.428C436.097 32.46 436.295 33.27 436.691 33.858C437.087 34.434 437.795 34.722 438.815 34.722C439.523 34.722 440.045 34.596 440.381 34.344C440.729 34.08 440.933 33.708 440.993 33.228H442.721C442.673 33.756 442.487 34.248 442.163 34.704C441.851 35.148 441.413 35.508 440.849 35.784C440.285 36.048 439.613 36.18 438.833 36.18ZM449.309 23.274H453.683C454.787 23.274 455.663 23.454 456.311 23.814C456.971 24.162 457.445 24.642 457.733 25.254C458.021 25.854 458.165 26.544 458.165 27.324C458.165 28.092 458.021 28.788 457.733 29.412C457.445 30.024 456.977 30.51 456.329 30.87C455.681 31.23 454.805 31.41 453.701 31.41H451.091V36H449.309V23.274ZM453.629 29.88C454.397 29.88 454.979 29.778 455.375 29.574C455.771 29.37 456.041 29.076 456.185 28.692C456.329 28.308 456.401 27.852 456.401 27.324C456.401 26.784 456.329 26.328 456.185 25.956C456.053 25.584 455.783 25.302 455.375 25.11C454.979 24.906 454.391 24.804 453.611 24.804H451.091V29.88H453.629ZM460.155 23.274H464.835C465.831 23.274 466.629 23.424 467.229 23.724C467.829 24.012 468.261 24.408 468.525 24.912C468.801 25.416 468.939 25.998 468.939 26.658C468.939 27.222 468.813 27.696 468.561 28.08C468.321 28.452 468.015 28.74 467.643 28.944C467.283 29.136 466.911 29.262 466.527 29.322V29.43C466.947 29.442 467.379 29.568 467.823 29.808C468.279 30.036 468.663 30.384 468.975 30.852C469.287 31.308 469.443 31.89 469.443 32.598C469.443 33.258 469.305 33.846 469.029 34.362C468.753 34.866 468.285 35.268 467.625 35.568C466.977 35.856 466.095 36 464.979 36H460.155V23.274ZM464.961 34.506C465.705 34.506 466.269 34.428 466.653 34.272C467.049 34.116 467.319 33.894 467.463 33.606C467.607 33.306 467.679 32.952 467.679 32.544C467.679 31.872 467.469 31.326 467.049 30.906C466.641 30.474 465.975 30.258 465.051 30.258H461.937V34.506H464.961ZM464.763 28.782C466.371 28.782 467.175 28.086 467.175 26.694C467.175 26.298 467.109 25.956 466.977 25.668C466.857 25.38 466.623 25.158 466.275 25.002C465.939 24.846 465.453 24.768 464.817 24.768H461.937V28.782H464.763ZM475.624 33.984H475.732L479.44 23.274H481.33L476.65 36H474.688L470.026 23.274H471.934L475.624 33.984ZM483.165 30.276C483.165 28.788 483.315 27.504 483.615 26.424C483.927 25.332 484.311 24.414 484.767 23.67C485.223 22.914 485.679 22.296 486.135 21.816H487.899C487.311 22.428 486.783 23.124 486.315 23.904C485.847 24.684 485.475 25.596 485.199 26.64C484.935 27.672 484.803 28.884 484.803 30.276C484.803 31.656 484.935 32.868 485.199 33.912C485.475 34.956 485.847 35.868 486.315 36.648C486.783 37.44 487.311 38.142 487.899 38.754H486.135C485.679 38.274 485.223 37.656 484.767 36.9C484.311 36.144 483.927 35.226 483.615 34.146C483.315 33.054 483.165 31.764 483.165 30.276ZM496.841 26.442C496.769 25.806 496.505 25.344 496.049 25.056C495.593 24.756 494.957 24.606 494.141 24.606C493.241 24.606 492.575 24.78 492.143 25.128C491.711 25.476 491.495 25.968 491.495 26.604C491.495 27.06 491.627 27.42 491.891 27.684C492.155 27.948 492.473 28.146 492.845 28.278C493.217 28.41 493.553 28.524 493.853 28.62L495.095 28.962C495.443 29.058 495.827 29.184 496.247 29.34C496.679 29.496 497.087 29.706 497.471 29.97C497.867 30.234 498.191 30.57 498.443 30.978C498.695 31.386 498.821 31.896 498.821 32.508C498.821 33.6 498.431 34.494 497.651 35.19C496.871 35.886 495.689 36.234 494.105 36.234C492.617 36.234 491.483 35.922 490.703 35.298C489.923 34.662 489.491 33.798 489.407 32.706H491.207C491.267 33.438 491.555 33.96 492.071 34.272C492.587 34.572 493.265 34.722 494.105 34.722C495.041 34.722 495.767 34.53 496.283 34.146C496.799 33.762 497.057 33.204 497.057 32.472C497.057 32.052 496.943 31.722 496.715 31.482C496.499 31.23 496.211 31.032 495.851 30.888C495.491 30.732 495.089 30.594 494.645 30.474L493.079 30.024C492.047 29.736 491.231 29.328 490.631 28.8C490.043 28.272 489.749 27.564 489.749 26.676C489.749 25.92 489.935 25.278 490.307 24.75C490.679 24.21 491.201 23.802 491.873 23.526C492.545 23.238 493.319 23.094 494.195 23.094C495.551 23.094 496.607 23.406 497.363 24.03C498.119 24.642 498.521 25.446 498.569 26.442H496.841ZM499.261 23.274H509.035V24.768H505.039V36H503.275V24.768H499.261V23.274ZM515.276 36H513.512V24.264L514.538 24.408L510.38 27.162V25.398L513.566 23.274H515.276V36ZM523.759 30.276C523.759 31.764 523.603 33.054 523.291 34.146C522.991 35.226 522.613 36.144 522.157 36.9C521.701 37.656 521.245 38.274 520.789 38.754H519.025C519.613 38.142 520.141 37.44 520.609 36.648C521.077 35.868 521.443 34.956 521.707 33.912C521.983 32.868 522.121 31.656 522.121 30.276C522.121 28.884 521.983 27.672 521.707 26.64C521.443 25.596 521.077 24.684 520.609 23.904C520.141 23.124 519.613 22.428 519.025 21.816H520.789C521.245 22.296 521.701 22.914 522.157 23.67C522.613 24.414 522.991 25.332 523.291 26.424C523.603 27.504 523.759 28.788 523.759 30.276ZM535.654 25.488H535.546L531.784 36H530.02L534.754 23.274H536.518L541.252 36H539.416L535.654 25.488ZM538.858 32.616H532.36V31.068H538.858V32.616ZM546.2 33.984H546.308L550.016 23.274H551.906L547.226 36H545.264L540.602 23.274H542.51L546.2 33.984ZM563.57 36H561.842L555.542 26.154H555.452V36H553.706V23.274H555.452L561.752 33.12H561.842V23.274H563.57V36ZM565.003 23.274H574.777V24.768H570.781V36H569.017V24.768H565.003V23.274Z" fill="#222222"/>
<rect x="360" y="50" width="278" height="33" rx="16.5" fill="#EAEEF6"/>
<path d="M381.44 60.274H383.222V65.872H389.54V60.274H391.322V73H389.54V67.366H383.222V73H381.44V60.274ZM399.422 68.032H394.022V66.538H399.422V68.032ZM403.749 60.094V73H402.039V60.094H403.749ZM406.701 73.18C405.873 73.18 405.201 72.976 404.685 72.568C404.169 72.148 403.785 71.584 403.533 70.876C403.293 70.156 403.173 69.34 403.173 68.428C403.173 67.516 403.293 66.706 403.533 65.998C403.785 65.278 404.169 64.714 404.685 64.306C405.201 63.886 405.873 63.676 406.701 63.676C407.913 63.676 408.873 64.072 409.581 64.864C410.301 65.644 410.661 66.832 410.661 68.428C410.661 69.988 410.313 71.17 409.617 71.974C408.921 72.778 407.949 73.18 406.701 73.18ZM406.305 71.74C407.241 71.74 407.913 71.452 408.321 70.876C408.741 70.3 408.951 69.484 408.951 68.428C408.951 67.372 408.741 66.556 408.321 65.98C407.913 65.404 407.241 65.116 406.305 65.116C405.405 65.116 404.751 65.404 404.343 65.98C403.947 66.556 403.749 67.372 403.749 68.428C403.749 69.484 403.947 70.3 404.343 70.876C404.751 71.452 405.405 71.74 406.305 71.74ZM414.49 73H412.78V63.874H414.49V65.44C414.946 64.396 415.738 63.874 416.866 63.874H417.658V65.314H416.596C415.192 65.314 414.49 66.082 414.49 67.618V73ZM427.032 73H426.006C425.022 73 424.524 72.322 424.512 70.966L424.728 71.056C424.536 71.656 424.2 72.16 423.72 72.568C423.24 72.976 422.532 73.18 421.596 73.18C420.552 73.18 419.748 72.958 419.184 72.514C418.62 72.058 418.338 71.344 418.338 70.372C418.338 69.664 418.512 69.112 418.86 68.716C419.208 68.32 419.652 68.044 420.192 67.888C420.732 67.72 421.296 67.636 421.884 67.636H424.53V66.826C424.53 66.226 424.368 65.788 424.044 65.512C423.732 65.224 423.198 65.08 422.442 65.08C421.782 65.08 421.29 65.194 420.966 65.422C420.642 65.638 420.444 65.992 420.372 66.484H418.662C418.758 65.572 419.154 64.876 419.85 64.396C420.558 63.916 421.44 63.676 422.496 63.676C422.928 63.676 423.36 63.724 423.792 63.82C424.236 63.904 424.638 64.066 424.998 64.306C425.37 64.546 425.664 64.882 425.88 65.314C426.108 65.746 426.222 66.298 426.222 66.97V71.542H427.032V73ZM419.994 70.39C419.994 70.87 420.138 71.224 420.426 71.452C420.714 71.668 421.158 71.776 421.758 71.776C422.61 71.776 423.282 71.578 423.774 71.182C424.278 70.774 424.53 70.252 424.53 69.616V68.896H421.902C420.63 68.896 419.994 69.394 419.994 70.39ZM430.521 73H428.811V63.874H430.521V65.188C430.809 64.744 431.157 64.384 431.565 64.108C431.973 63.82 432.525 63.676 433.221 63.676C434.205 63.676 434.985 63.952 435.561 64.504C436.149 65.044 436.443 65.974 436.443 67.294V73H434.733V67.348C434.733 66.556 434.565 65.992 434.229 65.656C433.905 65.308 433.419 65.134 432.771 65.134C432.063 65.134 431.511 65.332 431.115 65.728C430.719 66.112 430.521 66.742 430.521 67.618V73ZM445.448 60.094H447.158V73H445.448V60.094ZM442.496 73.18C441.26 73.18 440.288 72.778 439.58 71.974C438.884 71.17 438.536 69.988 438.536 68.428C438.536 66.832 438.89 65.644 439.598 64.864C440.318 64.072 441.284 63.676 442.496 63.676C443.324 63.676 443.996 63.886 444.512 64.306C445.04 64.714 445.424 65.278 445.664 65.998C445.904 66.706 446.024 67.516 446.024 68.428C446.024 69.34 445.904 70.156 445.664 70.876C445.424 71.584 445.04 72.148 444.512 72.568C443.996 72.976 443.324 73.18 442.496 73.18ZM442.892 71.74C443.792 71.74 444.44 71.452 444.836 70.876C445.244 70.3 445.448 69.484 445.448 68.428C445.448 67.372 445.244 66.556 444.836 65.98C444.44 65.404 443.792 65.116 442.892 65.116C441.956 65.116 441.278 65.404 440.858 65.98C440.45 66.556 440.246 67.372 440.246 68.428C440.246 69.484 440.45 70.3 440.858 70.876C441.278 71.452 441.956 71.74 442.892 71.74ZM454.372 60.274H456.154V65.872H462.472V60.274H464.254V73H462.472V67.366H456.154V73H454.372V60.274ZM471.651 70.984H471.759L475.467 60.274H477.357L472.677 73H470.715L466.053 60.274H467.961L471.651 70.984ZM482.34 62.488H482.232L478.47 73H476.706L481.44 60.274H483.204L487.938 73H486.102L482.34 62.488ZM485.544 69.616H479.046V68.068H485.544V69.616ZM497.438 64.288C497.294 63.364 496.94 62.686 496.376 62.254C495.824 61.822 495.086 61.606 494.162 61.606C492.938 61.606 492.008 62.02 491.372 62.848C490.748 63.676 490.436 64.936 490.436 66.628C490.436 69.988 491.678 71.668 494.162 71.668C495.086 71.668 495.824 71.452 496.376 71.02C496.94 70.576 497.3 69.898 497.456 68.986H499.22C499.04 70.342 498.506 71.38 497.618 72.1C496.742 72.82 495.59 73.18 494.162 73.18C492.422 73.18 491.066 72.622 490.094 71.506C489.134 70.378 488.654 68.752 488.654 66.628C488.654 64.504 489.134 62.884 490.094 61.768C491.066 60.652 492.422 60.094 494.162 60.094C495.494 60.094 496.616 60.454 497.528 61.174C498.452 61.882 499.01 62.92 499.202 64.288H497.438ZM509.997 65.314H507.981V71.56H509.997V73H508.719C507.999 73 507.411 72.838 506.955 72.514C506.499 72.19 506.271 71.614 506.271 70.786V65.314H504.723V63.874H506.271V61.156H507.981V63.874H509.997V65.314ZM515.401 73.18C514.021 73.18 512.947 72.772 512.179 71.956C511.423 71.14 511.045 69.97 511.045 68.446C511.045 66.922 511.423 65.746 512.179 64.918C512.947 64.09 514.021 63.676 515.401 63.676C516.769 63.676 517.837 64.09 518.605 64.918C519.373 65.734 519.757 66.91 519.757 68.446C519.757 69.982 519.373 71.158 518.605 71.974C517.849 72.778 516.781 73.18 515.401 73.18ZM515.401 71.722C516.325 71.722 516.997 71.44 517.417 70.876C517.837 70.3 518.047 69.49 518.047 68.446C518.047 67.402 517.837 66.592 517.417 66.016C516.997 65.428 516.325 65.134 515.401 65.134C514.477 65.134 513.805 65.428 513.385 66.016C512.965 66.592 512.755 67.402 512.755 68.446C512.755 69.49 512.965 70.3 513.385 70.876C513.805 71.44 514.477 71.722 515.401 71.722ZM527.755 63.874H529.465V73H527.755V71.668C527.467 72.1 527.119 72.46 526.711 72.748C526.303 73.036 525.751 73.18 525.055 73.18C524.071 73.18 523.285 72.904 522.697 72.352C522.121 71.8 521.833 70.87 521.833 69.562V63.874H523.525V69.508C523.525 70.288 523.693 70.852 524.029 71.2C524.365 71.548 524.857 71.722 525.505 71.722C526.213 71.722 526.765 71.53 527.161 71.146C527.557 70.75 527.755 70.114 527.755 69.238V63.874ZM536.058 73.18C534.57 73.18 533.454 72.766 532.71 71.938C531.978 71.11 531.612 69.94 531.612 68.428C531.612 66.916 531.99 65.746 532.746 64.918C533.502 64.09 534.594 63.676 536.022 63.676C536.742 63.676 537.384 63.808 537.948 64.072C538.512 64.324 538.968 64.678 539.316 65.134C539.664 65.578 539.862 66.094 539.91 66.682H538.2C538.152 66.25 537.966 65.884 537.642 65.584C537.318 65.284 536.784 65.134 536.04 65.134C535.02 65.134 534.312 65.428 533.916 66.016C533.52 66.592 533.322 67.396 533.322 68.428C533.322 69.46 533.52 70.27 533.916 70.858C534.312 71.434 535.02 71.722 536.04 71.722C536.748 71.722 537.27 71.596 537.606 71.344C537.954 71.08 538.158 70.708 538.218 70.228H539.946C539.898 70.756 539.712 71.248 539.388 71.704C539.076 72.148 538.638 72.508 538.074 72.784C537.51 73.048 536.838 73.18 536.058 73.18ZM543.724 73H542.014V60.094H543.724V65.188C544.012 64.744 544.354 64.384 544.75 64.108C545.158 63.82 545.71 63.676 546.406 63.676C547.426 63.676 548.218 63.952 548.782 64.504C549.358 65.044 549.646 65.956 549.646 67.24V73H547.936V67.258C547.936 66.514 547.768 65.974 547.432 65.638C547.096 65.302 546.604 65.134 545.956 65.134C545.248 65.134 544.696 65.326 544.3 65.71C543.916 66.094 543.724 66.7 543.724 67.528V73ZM563.045 60.094H564.755V73H563.045V60.094ZM560.093 73.18C558.857 73.18 557.885 72.778 557.177 71.974C556.481 71.17 556.133 69.988 556.133 68.428C556.133 66.832 556.487 65.644 557.195 64.864C557.915 64.072 558.881 63.676 560.093 63.676C560.921 63.676 561.593 63.886 562.109 64.306C562.637 64.714 563.021 65.278 563.261 65.998C563.501 66.706 563.621 67.516 563.621 68.428C563.621 69.34 563.501 70.156 563.261 70.876C563.021 71.584 562.637 72.148 562.109 72.568C561.593 72.976 560.921 73.18 560.093 73.18ZM560.489 71.74C561.389 71.74 562.037 71.452 562.433 70.876C562.841 70.3 563.045 69.484 563.045 68.428C563.045 67.372 562.841 66.556 562.433 65.98C562.037 65.404 561.389 65.116 560.489 65.116C559.553 65.116 558.875 65.404 558.455 65.98C558.047 66.556 557.843 67.372 557.843 68.428C557.843 69.484 558.047 70.3 558.455 70.876C558.875 71.452 559.553 71.74 560.489 71.74ZM569.125 63.874V73H567.415V63.874H569.125ZM567.325 60.094H569.215V62.002H567.325V60.094ZM576.921 66.358C576.849 65.902 576.669 65.584 576.381 65.404C576.093 65.212 575.667 65.116 575.103 65.116C574.515 65.116 574.059 65.218 573.735 65.422C573.411 65.626 573.249 65.902 573.249 66.25C573.249 66.586 573.369 66.85 573.609 67.042C573.861 67.222 574.245 67.378 574.761 67.51L576.147 67.852C577.887 68.26 578.757 69.118 578.757 70.426C578.757 71.242 578.439 71.908 577.803 72.424C577.167 72.928 576.219 73.18 574.959 73.18C572.679 73.18 571.437 72.25 571.233 70.39H573.015C573.075 70.858 573.243 71.2 573.519 71.416C573.807 71.62 574.275 71.722 574.923 71.722C575.703 71.722 576.243 71.614 576.543 71.398C576.855 71.182 577.011 70.888 577.011 70.516C577.011 69.88 576.525 69.448 575.553 69.22L574.167 68.878C572.427 68.458 571.557 67.612 571.557 66.34C571.557 65.524 571.863 64.876 572.475 64.396C573.099 63.916 573.975 63.676 575.103 63.676C576.171 63.676 577.005 63.91 577.605 64.378C578.205 64.834 578.529 65.494 578.577 66.358H576.921ZM582.662 63.874V76.636H580.952V63.874H582.662ZM585.596 73.18C584.78 73.18 584.108 72.976 583.58 72.568C583.064 72.148 582.686 71.584 582.446 70.876C582.206 70.156 582.086 69.346 582.086 68.446C582.086 67.534 582.206 66.724 582.446 66.016C582.686 65.296 583.064 64.732 583.58 64.324C584.108 63.904 584.78 63.694 585.596 63.694C586.844 63.694 587.816 64.096 588.512 64.9C589.208 65.704 589.556 66.886 589.556 68.446C589.556 70.006 589.208 71.188 588.512 71.992C587.816 72.784 586.844 73.18 585.596 73.18ZM585.218 71.722C586.142 71.722 586.808 71.44 587.216 70.876C587.636 70.3 587.846 69.49 587.846 68.446C587.846 67.402 587.636 66.592 587.216 66.016C586.808 65.44 586.142 65.152 585.218 65.152C584.318 65.152 583.664 65.44 583.256 66.016C582.86 66.592 582.662 67.402 582.662 68.446C582.662 69.49 582.86 70.3 583.256 70.876C583.664 71.44 584.318 71.722 585.218 71.722ZM593.382 73H591.672V60.094H593.382V73ZM604.184 73H603.158C602.174 73 601.676 72.322 601.664 70.966L601.88 71.056C601.688 71.656 601.352 72.16 600.872 72.568C600.392 72.976 599.684 73.18 598.748 73.18C597.704 73.18 596.9 72.958 596.336 72.514C595.772 72.058 595.49 71.344 595.49 70.372C595.49 69.664 595.664 69.112 596.012 68.716C596.36 68.32 596.804 68.044 597.344 67.888C597.884 67.72 598.448 67.636 599.036 67.636H601.682V66.826C601.682 66.226 601.52 65.788 601.196 65.512C600.884 65.224 600.35 65.08 599.594 65.08C598.934 65.08 598.442 65.194 598.118 65.422C597.794 65.638 597.596 65.992 597.524 66.484H595.814C595.91 65.572 596.306 64.876 597.002 64.396C597.71 63.916 598.592 63.676 599.648 63.676C600.08 63.676 600.512 63.724 600.944 63.82C601.388 63.904 601.79 64.066 602.15 64.306C602.522 64.546 602.816 64.882 603.032 65.314C603.26 65.746 603.374 66.298 603.374 66.97V71.542H604.184V73ZM597.146 70.39C597.146 70.87 597.29 71.224 597.578 71.452C597.866 71.668 598.31 71.776 598.91 71.776C599.762 71.776 600.434 71.578 600.926 71.182C601.43 70.774 601.682 70.252 601.682 69.616V68.896H599.054C597.782 68.896 597.146 69.394 597.146 70.39ZM612.103 63.874H613.813L610.663 74.404C610.411 75.244 610.039 75.826 609.547 76.15C609.067 76.474 608.449 76.636 607.693 76.636H606.325V75.178H607.603C608.059 75.178 608.407 75.094 608.647 74.926C608.899 74.77 609.091 74.452 609.223 73.972L612.103 63.874ZM606.649 63.874L608.719 70.156C608.887 70.672 609.025 71.014 609.133 71.182C609.253 71.35 609.421 71.434 609.637 71.434H610.861V72.946H609.439C609.019 72.946 608.683 72.88 608.431 72.748C608.179 72.616 607.957 72.388 607.765 72.064C607.585 71.728 607.393 71.26 607.189 70.66L604.903 63.874H606.649Z" fill="#222222"/>
<rect x="360" y="87" width="278" height="33" rx="16.5" fill="#EAEEF6"/>
<path d="M381.44 97.274H383.222V102.872H389.54V97.274H391.322V110H389.54V104.366H383.222V110H381.44V97.274ZM399.422 105.032H394.022V103.538H399.422V105.032ZM403.749 97.094V110H402.039V97.094H403.749ZM406.701 110.18C405.873 110.18 405.201 109.976 404.685 109.568C404.169 109.148 403.785 108.584 403.533 107.876C403.293 107.156 403.173 106.34 403.173 105.428C403.173 104.516 403.293 103.706 403.533 102.998C403.785 102.278 404.169 101.714 404.685 101.306C405.201 100.886 405.873 100.676 406.701 100.676C407.913 100.676 408.873 101.072 409.581 101.864C410.301 102.644 410.661 103.832 410.661 105.428C410.661 106.988 410.313 108.17 409.617 108.974C408.921 109.778 407.949 110.18 406.701 110.18ZM406.305 108.74C407.241 108.74 407.913 108.452 408.321 107.876C408.741 107.3 408.951 106.484 408.951 105.428C408.951 104.372 408.741 103.556 408.321 102.98C407.913 102.404 407.241 102.116 406.305 102.116C405.405 102.116 404.751 102.404 404.343 102.98C403.947 103.556 403.749 104.372 403.749 105.428C403.749 106.484 403.947 107.3 404.343 107.876C404.751 108.452 405.405 108.74 406.305 108.74ZM414.49 110H412.78V100.874H414.49V102.44C414.946 101.396 415.738 100.874 416.866 100.874H417.658V102.314H416.596C415.192 102.314 414.49 103.082 414.49 104.618V110ZM427.032 110H426.006C425.022 110 424.524 109.322 424.512 107.966L424.728 108.056C424.536 108.656 424.2 109.16 423.72 109.568C423.24 109.976 422.532 110.18 421.596 110.18C420.552 110.18 419.748 109.958 419.184 109.514C418.62 109.058 418.338 108.344 418.338 107.372C418.338 106.664 418.512 106.112 418.86 105.716C419.208 105.32 419.652 105.044 420.192 104.888C420.732 104.72 421.296 104.636 421.884 104.636H424.53V103.826C424.53 103.226 424.368 102.788 424.044 102.512C423.732 102.224 423.198 102.08 422.442 102.08C421.782 102.08 421.29 102.194 420.966 102.422C420.642 102.638 420.444 102.992 420.372 103.484H418.662C418.758 102.572 419.154 101.876 419.85 101.396C420.558 100.916 421.44 100.676 422.496 100.676C422.928 100.676 423.36 100.724 423.792 100.82C424.236 100.904 424.638 101.066 424.998 101.306C425.37 101.546 425.664 101.882 425.88 102.314C426.108 102.746 426.222 103.298 426.222 103.97V108.542H427.032V110ZM419.994 107.39C419.994 107.87 420.138 108.224 420.426 108.452C420.714 108.668 421.158 108.776 421.758 108.776C422.61 108.776 423.282 108.578 423.774 108.182C424.278 107.774 424.53 107.252 424.53 106.616V105.896H421.902C420.63 105.896 419.994 106.394 419.994 107.39ZM430.521 110H428.811V100.874H430.521V102.188C430.809 101.744 431.157 101.384 431.565 101.108C431.973 100.82 432.525 100.676 433.221 100.676C434.205 100.676 434.985 100.952 435.561 101.504C436.149 102.044 436.443 102.974 436.443 104.294V110H434.733V104.348C434.733 103.556 434.565 102.992 434.229 102.656C433.905 102.308 433.419 102.134 432.771 102.134C432.063 102.134 431.511 102.332 431.115 102.728C430.719 103.112 430.521 103.742 430.521 104.618V110ZM445.448 97.094H447.158V110H445.448V97.094ZM442.496 110.18C441.26 110.18 440.288 109.778 439.58 108.974C438.884 108.17 438.536 106.988 438.536 105.428C438.536 103.832 438.89 102.644 439.598 101.864C440.318 101.072 441.284 100.676 442.496 100.676C443.324 100.676 443.996 100.886 444.512 101.306C445.04 101.714 445.424 102.278 445.664 102.998C445.904 103.706 446.024 104.516 446.024 105.428C446.024 106.34 445.904 107.156 445.664 107.876C445.424 108.584 445.04 109.148 444.512 109.568C443.996 109.976 443.324 110.18 442.496 110.18ZM442.892 108.74C443.792 108.74 444.44 108.452 444.836 107.876C445.244 107.3 445.448 106.484 445.448 105.428C445.448 104.372 445.244 103.556 444.836 102.98C444.44 102.404 443.792 102.116 442.892 102.116C441.956 102.116 441.278 102.404 440.858 102.98C440.45 103.556 440.246 104.372 440.246 105.428C440.246 106.484 440.45 107.3 440.858 107.876C441.278 108.452 441.956 108.74 442.892 108.74ZM454.372 97.274H456.154V102.872H462.472V97.274H464.254V110H462.472V104.366H456.154V110H454.372V97.274ZM471.651 107.984H471.759L475.467 97.274H477.357L472.677 110H470.715L466.053 97.274H467.961L471.651 107.984ZM482.34 99.488H482.232L478.47 110H476.706L481.44 97.274H483.204L487.938 110H486.102L482.34 99.488ZM485.544 106.616H479.046V105.068H485.544V106.616ZM497.438 101.288C497.294 100.364 496.94 99.686 496.376 99.254C495.824 98.822 495.086 98.606 494.162 98.606C492.938 98.606 492.008 99.02 491.372 99.848C490.748 100.676 490.436 101.936 490.436 103.628C490.436 106.988 491.678 108.668 494.162 108.668C495.086 108.668 495.824 108.452 496.376 108.02C496.94 107.576 497.3 106.898 497.456 105.986H499.22C499.04 107.342 498.506 108.38 497.618 109.1C496.742 109.82 495.59 110.18 494.162 110.18C492.422 110.18 491.066 109.622 490.094 108.506C489.134 107.378 488.654 105.752 488.654 103.628C488.654 101.504 489.134 99.884 490.094 98.768C491.066 97.652 492.422 97.094 494.162 97.094C495.494 97.094 496.616 97.454 497.528 98.174C498.452 98.882 499.01 99.92 499.202 101.288H497.438ZM509.673 110.18C508.185 110.18 507.069 109.766 506.325 108.938C505.593 108.11 505.227 106.94 505.227 105.428C505.227 103.916 505.605 102.746 506.361 101.918C507.117 101.09 508.209 100.676 509.637 100.676C510.357 100.676 510.999 100.808 511.563 101.072C512.127 101.324 512.583 101.678 512.931 102.134C513.279 102.578 513.477 103.094 513.525 103.682H511.815C511.767 103.25 511.581 102.884 511.257 102.584C510.933 102.284 510.399 102.134 509.655 102.134C508.635 102.134 507.927 102.428 507.531 103.016C507.135 103.592 506.937 104.396 506.937 105.428C506.937 106.46 507.135 107.27 507.531 107.858C507.927 108.434 508.635 108.722 509.655 108.722C510.363 108.722 510.885 108.596 511.221 108.344C511.569 108.08 511.773 107.708 511.833 107.228H513.561C513.513 107.756 513.327 108.248 513.003 108.704C512.691 109.148 512.253 109.508 511.689 109.784C511.125 110.048 510.453 110.18 509.673 110.18ZM519.409 110.18C518.029 110.18 516.955 109.772 516.187 108.956C515.431 108.14 515.053 106.97 515.053 105.446C515.053 103.922 515.431 102.746 516.187 101.918C516.955 101.09 518.029 100.676 519.409 100.676C520.777 100.676 521.845 101.09 522.613 101.918C523.381 102.734 523.765 103.91 523.765 105.446C523.765 106.982 523.381 108.158 522.613 108.974C521.857 109.778 520.789 110.18 519.409 110.18ZM519.409 108.722C520.333 108.722 521.005 108.44 521.425 107.876C521.845 107.3 522.055 106.49 522.055 105.446C522.055 104.402 521.845 103.592 521.425 103.016C521.005 102.428 520.333 102.134 519.409 102.134C518.485 102.134 517.813 102.428 517.393 103.016C516.973 103.592 516.763 104.402 516.763 105.446C516.763 106.49 516.973 107.3 517.393 107.876C517.813 108.44 518.485 108.722 519.409 108.722ZM527.605 110H525.895V100.874H527.605V102.188C527.893 101.744 528.241 101.384 528.649 101.108C529.057 100.82 529.609 100.676 530.305 100.676C531.289 100.676 532.069 100.952 532.645 101.504C533.233 102.044 533.527 102.974 533.527 104.294V110H531.817V104.348C531.817 103.556 531.649 102.992 531.313 102.656C530.989 102.308 530.503 102.134 529.855 102.134C529.147 102.134 528.595 102.332 528.199 102.728C527.803 103.112 527.605 103.742 527.605 104.618V110ZM540.249 102.314H538.233V108.56H540.249V110H538.971C538.251 110 537.663 109.838 537.207 109.514C536.751 109.19 536.523 108.614 536.523 107.786V102.314H534.975V100.874H536.523V98.156H538.233V100.874H540.249V102.314ZM543.865 110H542.155V100.874H543.865V102.44C544.321 101.396 545.113 100.874 546.241 100.874H547.033V102.314H545.971C544.567 102.314 543.865 103.082 543.865 104.618V110ZM552.087 110.18C550.707 110.18 549.633 109.772 548.865 108.956C548.109 108.14 547.731 106.97 547.731 105.446C547.731 103.922 548.109 102.746 548.865 101.918C549.633 101.09 550.707 100.676 552.087 100.676C553.455 100.676 554.523 101.09 555.291 101.918C556.059 102.734 556.443 103.91 556.443 105.446C556.443 106.982 556.059 108.158 555.291 108.974C554.535 109.778 553.467 110.18 552.087 110.18ZM552.087 108.722C553.011 108.722 553.683 108.44 554.103 107.876C554.523 107.3 554.733 106.49 554.733 105.446C554.733 104.402 554.523 103.592 554.103 103.016C553.683 102.428 553.011 102.134 552.087 102.134C551.163 102.134 550.491 102.428 550.071 103.016C549.651 103.592 549.441 104.402 549.441 105.446C549.441 106.49 549.651 107.3 550.071 107.876C550.491 108.44 551.163 108.722 552.087 108.722ZM560.283 110H558.573V97.094H560.283V110ZM564.695 110H562.985V97.094H564.695V110ZM567.721 104.69H573.625C573.613 103.778 573.397 103.118 572.977 102.71C572.569 102.29 571.963 102.08 571.159 102.08C570.247 102.08 569.581 102.356 569.161 102.908C568.741 103.448 568.531 104.27 568.531 105.374C568.531 106.502 568.735 107.354 569.143 107.93C569.563 108.494 570.277 108.776 571.285 108.776C571.969 108.776 572.461 108.674 572.761 108.47C573.061 108.254 573.271 107.96 573.391 107.588H575.173C575.005 108.356 574.591 108.98 573.931 109.46C573.271 109.94 572.389 110.18 571.285 110.18C569.821 110.18 568.711 109.766 567.955 108.938C567.199 108.098 566.821 106.928 566.821 105.428C566.821 103.892 567.199 102.716 567.955 101.9C568.711 101.084 569.779 100.676 571.159 100.676C571.927 100.676 572.623 100.832 573.247 101.144C573.871 101.456 574.369 101.96 574.741 102.656C575.125 103.34 575.317 104.252 575.317 105.392V105.95H567.703L567.721 104.69ZM579.126 110H577.416V100.874H579.126V102.44C579.582 101.396 580.374 100.874 581.502 100.874H582.294V102.314H581.232C579.828 102.314 579.126 103.082 579.126 104.618V110Z" fill="black"/>
<rect x="360" y="124" width="278" height="33" rx="16.5" fill="#EAEEF6"/>
<path d="M388.208 137.442C388.136 136.806 387.872 136.344 387.416 136.056C386.96 135.756 386.324 135.606 385.508 135.606C384.608 135.606 383.942 135.78 383.51 136.128C383.078 136.476 382.862 136.968 382.862 137.604C382.862 138.06 382.994 138.42 383.258 138.684C383.522 138.948 383.84 139.146 384.212 139.278C384.584 139.41 384.92 139.524 385.22 139.62L386.462 139.962C386.81 140.058 387.194 140.184 387.614 140.34C388.046 140.496 388.454 140.706 388.838 140.97C389.234 141.234 389.558 141.57 389.81 141.978C390.062 142.386 390.188 142.896 390.188 143.508C390.188 144.6 389.798 145.494 389.018 146.19C388.238 146.886 387.056 147.234 385.472 147.234C383.984 147.234 382.85 146.922 382.07 146.298C381.29 145.662 380.858 144.798 380.774 143.706H382.574C382.634 144.438 382.922 144.96 383.438 145.272C383.954 145.572 384.632 145.722 385.472 145.722C386.408 145.722 387.134 145.53 387.65 145.146C388.166 144.762 388.424 144.204 388.424 143.472C388.424 143.052 388.31 142.722 388.082 142.482C387.866 142.23 387.578 142.032 387.218 141.888C386.858 141.732 386.456 141.594 386.012 141.474L384.446 141.024C383.414 140.736 382.598 140.328 381.998 139.8C381.41 139.272 381.116 138.564 381.116 137.676C381.116 136.92 381.302 136.278 381.674 135.75C382.046 135.21 382.568 134.802 383.24 134.526C383.912 134.238 384.686 134.094 385.562 134.094C386.918 134.094 387.974 134.406 388.73 135.03C389.486 135.642 389.888 136.446 389.936 137.442H388.208ZM396.319 139.314H394.303V145.56H396.319V147H395.041C394.321 147 393.733 146.838 393.277 146.514C392.821 146.19 392.593 145.614 392.593 144.786V139.314H391.045V137.874H392.593V135.156H394.303V137.874H396.319V139.314ZM398.268 141.69H404.172C404.16 140.778 403.944 140.118 403.524 139.71C403.116 139.29 402.51 139.08 401.706 139.08C400.794 139.08 400.128 139.356 399.708 139.908C399.288 140.448 399.078 141.27 399.078 142.374C399.078 143.502 399.282 144.354 399.69 144.93C400.11 145.494 400.824 145.776 401.832 145.776C402.516 145.776 403.008 145.674 403.308 145.47C403.608 145.254 403.818 144.96 403.938 144.588H405.72C405.552 145.356 405.138 145.98 404.478 146.46C403.818 146.94 402.936 147.18 401.832 147.18C400.368 147.18 399.258 146.766 398.502 145.938C397.746 145.098 397.368 143.928 397.368 142.428C397.368 140.892 397.746 139.716 398.502 138.9C399.258 138.084 400.326 137.676 401.706 137.676C402.474 137.676 403.17 137.832 403.794 138.144C404.418 138.456 404.916 138.96 405.288 139.656C405.672 140.34 405.864 141.252 405.864 142.392V142.95H398.25L398.268 141.69ZM409.673 147H407.963V134.094H409.673V147ZM414.085 147H412.375V134.094H414.085V147ZM424.888 147H423.862C422.878 147 422.38 146.322 422.368 144.966L422.584 145.056C422.392 145.656 422.056 146.16 421.576 146.568C421.096 146.976 420.388 147.18 419.452 147.18C418.408 147.18 417.604 146.958 417.04 146.514C416.476 146.058 416.194 145.344 416.194 144.372C416.194 143.664 416.368 143.112 416.716 142.716C417.064 142.32 417.508 142.044 418.048 141.888C418.588 141.72 419.152 141.636 419.74 141.636H422.386V140.826C422.386 140.226 422.224 139.788 421.9 139.512C421.588 139.224 421.054 139.08 420.298 139.08C419.638 139.08 419.146 139.194 418.822 139.422C418.498 139.638 418.3 139.992 418.228 140.484H416.518C416.614 139.572 417.01 138.876 417.706 138.396C418.414 137.916 419.296 137.676 420.352 137.676C420.784 137.676 421.216 137.724 421.648 137.82C422.092 137.904 422.494 138.066 422.854 138.306C423.226 138.546 423.52 138.882 423.736 139.314C423.964 139.746 424.078 140.298 424.078 140.97V145.542H424.888V147ZM417.85 144.39C417.85 144.87 417.994 145.224 418.282 145.452C418.57 145.668 419.014 145.776 419.614 145.776C420.466 145.776 421.138 145.578 421.63 145.182C422.134 144.774 422.386 144.252 422.386 143.616V142.896H419.758C418.486 142.896 417.85 143.394 417.85 144.39ZM428.376 147H426.666V137.874H428.376V139.188C428.664 138.744 429.012 138.384 429.42 138.108C429.828 137.82 430.38 137.676 431.076 137.676C432.06 137.676 432.84 137.952 433.416 138.504C434.004 139.044 434.298 139.974 434.298 141.294V147H432.588V141.348C432.588 140.556 432.42 139.992 432.084 139.656C431.76 139.308 431.274 139.134 430.626 139.134C429.918 139.134 429.366 139.332 428.97 139.728C428.574 140.112 428.376 140.742 428.376 141.618V147ZM441.021 139.314H439.005V145.56H441.021V147H439.743C439.023 147 438.435 146.838 437.979 146.514C437.523 146.19 437.295 145.614 437.295 144.786V139.314H435.747V137.874H437.295V135.156H439.005V137.874H441.021V139.314ZM444.601 137.874V147H442.891V137.874H444.601ZM442.801 134.094H444.691V136.002H442.801V134.094ZM452.397 140.358C452.325 139.902 452.145 139.584 451.857 139.404C451.569 139.212 451.143 139.116 450.579 139.116C449.991 139.116 449.535 139.218 449.211 139.422C448.887 139.626 448.725 139.902 448.725 140.25C448.725 140.586 448.845 140.85 449.085 141.042C449.337 141.222 449.721 141.378 450.237 141.51L451.623 141.852C453.363 142.26 454.233 143.118 454.233 144.426C454.233 145.242 453.915 145.908 453.279 146.424C452.643 146.928 451.695 147.18 450.435 147.18C448.155 147.18 446.913 146.25 446.709 144.39H448.491C448.551 144.858 448.719 145.2 448.995 145.416C449.283 145.62 449.751 145.722 450.399 145.722C451.179 145.722 451.719 145.614 452.019 145.398C452.331 145.182 452.487 144.888 452.487 144.516C452.487 143.88 452.001 143.448 451.029 143.22L449.643 142.878C447.903 142.458 447.033 141.612 447.033 140.34C447.033 139.524 447.339 138.876 447.951 138.396C448.575 137.916 449.451 137.676 450.579 137.676C451.647 137.676 452.481 137.91 453.081 138.378C453.681 138.834 454.005 139.494 454.053 140.358H452.397ZM465.412 136.488H465.304L461.542 147H459.778L464.512 134.274H466.276L471.01 147H469.174L465.412 136.488ZM468.616 143.616H462.118V142.068H468.616V143.616ZM475.958 144.984H476.066L479.774 134.274H481.664L476.984 147H475.022L470.36 134.274H472.268L475.958 144.984ZM487.929 141.276C487.929 139.788 488.079 138.504 488.379 137.424C488.691 136.332 489.075 135.414 489.531 134.67C489.987 133.914 490.443 133.296 490.899 132.816H492.663C492.075 133.428 491.547 134.124 491.079 134.904C490.611 135.684 490.239 136.596 489.963 137.64C489.699 138.672 489.567 139.884 489.567 141.276C489.567 142.656 489.699 143.868 489.963 144.912C490.239 145.956 490.611 146.868 491.079 147.648C491.547 148.44 492.075 149.142 492.663 149.754H490.899C490.443 149.274 489.987 148.656 489.531 147.9C489.075 147.144 488.691 146.226 488.379 145.146C488.079 144.054 487.929 142.764 487.929 141.276ZM501.064 134.886L501.424 135.768H494.062V134.274H502.576V135.552L496.816 147H494.908L501.064 134.886ZM505.405 138.306H503.857L504.811 133.374H506.503L505.405 138.306ZM508.825 138.306H507.277L508.231 133.374H509.905L508.825 138.306ZM516.183 141.276C516.183 142.764 516.027 144.054 515.715 145.146C515.415 146.226 515.037 147.144 514.581 147.9C514.125 148.656 513.669 149.274 513.213 149.754H511.449C512.037 149.142 512.565 148.44 513.033 147.648C513.501 146.868 513.867 145.956 514.131 144.912C514.407 143.868 514.545 142.656 514.545 141.276C514.545 139.884 514.407 138.672 514.131 137.64C513.867 136.596 513.501 135.684 513.033 134.904C512.565 134.124 512.037 133.428 511.449 132.816H513.213C513.669 133.296 514.125 133.914 514.581 134.67C515.037 135.414 515.415 136.332 515.715 137.424C516.027 138.504 516.183 139.788 516.183 141.276Z" fill="#222222"/>
<path d="M214 148.357V84V20.1186C214 18.2781 214 17.3579 214.386 16.8304C214.723 16.3703 215.24 16.0759 215.807 16.0209C216.458 15.958 217.25 16.4274 218.832 17.3663L310.368 71.66C311.951 72.5989 312.743 73.0684 313.393 73.0054C313.961 72.9505 314.478 72.656 314.815 72.196C315.201 71.6684 315.201 70.7482 315.201 68.9077V59.7902C315.201 57.4637 315.201 56.3005 315.667 55.7434C316.071 55.2597 316.681 54.9953 317.31 55.0298C318.035 55.0695 318.885 55.8637 320.585 57.452L346.614 81.7706C347.447 82.5494 347.864 82.9388 348.027 83.3972C348.171 83.8004 348.181 84.2389 348.057 84.6484C347.916 85.114 347.518 85.5228 346.723 86.3403L346.723 86.3404L320.694 113.091C318.976 114.857 318.116 115.74 317.377 115.806C316.735 115.862 316.106 115.607 315.685 115.119C315.201 114.556 315.201 113.324 315.201 110.859V99.1162C315.201 97.2689 315.201 96.3453 314.813 95.8172C314.476 95.3567 313.957 95.0626 313.388 95.0091C312.736 94.9476 311.944 95.4217 310.358 96.3699L218.843 151.104C217.257 152.052 216.464 152.526 215.812 152.465C215.244 152.411 214.725 152.117 214.387 151.656C214 151.128 214 150.205 214 148.357Z" fill="url(#paint0_linear_4262_972)"/>
<defs>
<linearGradient id="paint0_linear_4262_972" x1="226.52" y1="81.8949" x2="333.459" y2="81.8949" gradientUnits="userSpaceOnUse">
<stop stop-color="#0037B4" stop-opacity="0"/>
<stop offset="1" stop-color="#0037B4"/>
</linearGradient>
</defs>
</svg>
