<svg width="582" height="308" viewBox="0 0 582 308" fill="none" xmlns="http://www.w3.org/2000/svg">
<path opacity="0.2" d="M25.5362 215.68C20.9496 218.027 17.2162 221.173 14.3362 225.12C11.5629 229.067 10.1762 233.973 10.1762 239.84C10.1762 245.173 11.6162 250.027 14.4962 254.4C17.3762 258.88 21.7496 262.453 27.6162 265.12C33.4829 267.787 40.9496 269.12 50.0163 269.12C58.9763 269.12 66.3896 267.733 72.2563 264.96C78.2296 262.293 82.6563 258.72 85.5363 254.24C88.4163 249.867 89.8562 245.067 89.8562 239.84C89.8562 234.08 88.3629 229.173 85.3762 225.12C82.4962 221.067 78.8696 217.92 74.4963 215.68C80.1496 213.333 84.5763 209.813 87.7763 205.12C91.0829 200.533 92.7362 195.04 92.7362 188.64C92.7362 181.493 90.8163 175.36 86.9763 170.24C83.2429 165.227 78.1229 161.387 71.6163 158.72C65.2162 156.16 58.0163 154.88 50.0163 154.88C42.0163 154.88 34.7629 156.16 28.2563 158.72C21.8562 161.387 16.7896 165.227 13.0562 170.24C9.32292 175.36 7.45625 181.493 7.45625 188.64C7.45625 195.04 9.05625 200.533 12.2562 205.12C15.4562 209.813 19.8829 213.333 25.5362 215.68ZM65.0563 236.32C65.0563 240.907 63.6696 244.213 60.8962 246.24C58.2296 248.373 54.6029 249.44 50.0163 249.44C45.4296 249.44 41.7496 248.373 38.9763 246.24C36.3096 244.213 34.9762 240.907 34.9762 236.32C34.9762 232.053 36.3629 228.64 39.1363 226.08C41.9096 223.627 45.5363 222.4 50.0163 222.4C54.4963 222.4 58.1229 223.627 60.8962 226.08C63.6696 228.64 65.0563 232.053 65.0563 236.32ZM50.0163 205.44C46.3896 205.44 43.2429 204.8 40.5762 203.52C38.0163 202.347 36.0429 200.587 34.6562 198.24C33.2696 196 32.5762 193.173 32.5762 189.76C32.5762 185.173 34.0163 181.493 36.8963 178.72C39.7763 175.947 44.1496 174.56 50.0163 174.56C55.7763 174.56 60.1496 175.947 63.1362 178.72C66.1229 181.6 67.6163 185.28 67.6163 189.76C67.6163 193.067 66.8696 195.893 65.3762 198.24C63.9896 200.587 61.9629 202.347 59.2963 203.52C56.7363 204.8 53.6429 205.44 50.0163 205.44ZM117.228 247.36H101.548V268H141.868V156H117.228V247.36Z" fill="url(#paint0_linear_4484_12187)"/>
<path d="M25.5362 92.32C20.9496 89.9733 17.2162 86.8267 14.3362 82.88C11.5629 78.9333 10.1762 74.0267 10.1762 68.16C10.1762 62.8267 11.6162 57.9733 14.4962 53.6C17.3762 49.12 21.7496 45.5467 27.6162 42.88C33.4829 40.2133 40.9496 38.88 50.0163 38.88C58.9763 38.88 66.3896 40.2667 72.2563 43.04C78.2296 45.7067 82.6563 49.28 85.5363 53.76C88.4163 58.1333 89.8562 62.9333 89.8562 68.16C89.8562 73.92 88.3629 78.8267 85.3762 82.88C82.4962 86.9333 78.8696 90.08 74.4963 92.32C80.1496 94.6667 84.5763 98.1867 87.7763 102.88C91.0829 107.467 92.7362 112.96 92.7362 119.36C92.7362 126.507 90.8163 132.64 86.9763 137.76C83.2429 142.773 78.1229 146.613 71.6163 149.28C65.2162 151.84 58.0163 153.12 50.0163 153.12C42.0163 153.12 34.7629 151.84 28.2563 149.28C21.8562 146.613 16.7896 142.773 13.0562 137.76C9.32292 132.64 7.45625 126.507 7.45625 119.36C7.45625 112.96 9.05625 107.467 12.2562 102.88C15.4562 98.1867 19.8829 94.6667 25.5362 92.32ZM65.0563 71.68C65.0563 67.0933 63.6696 63.7867 60.8962 61.76C58.2296 59.6267 54.6029 58.56 50.0163 58.56C45.4296 58.56 41.7496 59.6267 38.9763 61.76C36.3096 63.7867 34.9762 67.0933 34.9762 71.68C34.9762 75.9467 36.3629 79.36 39.1363 81.92C41.9096 84.3733 45.5363 85.6 50.0163 85.6C54.4963 85.6 58.1229 84.3733 60.8962 81.92C63.6696 79.36 65.0563 75.9467 65.0563 71.68ZM50.0163 102.56C46.3896 102.56 43.2429 103.2 40.5762 104.48C38.0163 105.653 36.0429 107.413 34.6562 109.76C33.2696 112 32.5762 114.827 32.5762 118.24C32.5762 122.827 34.0163 126.507 36.8963 129.28C39.7763 132.053 44.1496 133.44 50.0163 133.44C55.7763 133.44 60.1496 132.053 63.1362 129.28C66.1229 126.4 67.6163 122.72 67.6163 118.24C67.6163 114.933 66.8696 112.107 65.3762 109.76C63.9896 107.413 61.9629 105.653 59.2963 104.48C56.7363 103.2 53.6429 102.56 50.0163 102.56ZM117.228 60.64H101.548V40H141.868V152H117.228V60.64Z" fill="#0078FF"/>
<rect x="186" y="44" width="394" height="106" rx="22" stroke="#0078FF" stroke-width="4"/>
<path d="M225.344 91.32C222.677 91.32 220.672 90.584 219.328 89.112C217.984 87.64 217.312 85.5387 217.312 82.808C217.312 80.0987 217.995 78.008 219.36 76.536C220.747 75.0427 222.72 74.296 225.28 74.296C226.581 74.296 227.755 74.5413 228.8 75.032C229.845 75.5227 230.677 76.184 231.296 77.016C231.936 77.848 232.288 78.7973 232.352 79.864H228.896C228.832 79.1387 228.533 78.5093 228 77.976C227.467 77.4213 226.571 77.144 225.312 77.144C223.627 77.144 222.443 77.6347 221.76 78.616C221.099 79.5973 220.768 80.9947 220.768 82.808C220.768 84.6213 221.099 86.0187 221.76 87C222.443 87.9813 223.627 88.472 225.312 88.472C226.507 88.472 227.381 88.2373 227.936 87.768C228.512 87.2987 228.843 86.6587 228.928 85.848H232.416C232.352 86.808 232.032 87.704 231.456 88.536C230.88 89.368 230.069 90.04 229.024 90.552C228 91.064 226.773 91.32 225.344 91.32ZM242.233 91.32C239.758 91.32 237.817 90.5947 236.409 89.144C235.001 87.672 234.297 85.5707 234.297 82.84C234.297 80.1093 235.001 78.008 236.409 76.536C237.817 75.0427 239.758 74.296 242.233 74.296C243.876 74.296 245.284 74.6267 246.457 75.288C247.652 75.9493 248.569 76.92 249.209 78.2C249.87 79.4587 250.201 81.0053 250.201 82.84C250.201 85.592 249.497 87.6933 248.089 89.144C246.681 90.5947 244.729 91.32 242.233 91.32ZM242.265 88.472C243.801 88.472 244.932 87.992 245.657 87.032C246.382 86.072 246.745 84.6747 246.745 82.84C246.745 81.0053 246.382 79.5973 245.657 78.616C244.932 77.6347 243.801 77.144 242.265 77.144C240.708 77.144 239.566 77.6347 238.841 78.616C238.116 79.5973 237.753 81.0053 237.753 82.84C237.753 84.6747 238.116 86.072 238.841 87.032C239.566 87.992 240.708 88.472 242.265 88.472ZM263.644 74.648H267.1V91H263.644V88.76C263.154 89.5493 262.546 90.1787 261.82 90.648C261.116 91.096 260.178 91.32 259.004 91.32C257.212 91.32 255.783 90.8187 254.716 89.816C253.65 88.8133 253.116 87.1387 253.116 84.792V74.648H256.54V84.728C256.54 86.0507 256.818 87.0107 257.372 87.608C257.948 88.184 258.78 88.472 259.868 88.472C260.679 88.472 261.362 88.3227 261.916 88.024C262.471 87.7253 262.898 87.2667 263.196 86.648C263.495 86.0293 263.644 85.2293 263.644 84.248V74.648ZM274.56 91H271.104V74.648H274.56V76.856C275.072 76.0667 275.68 75.448 276.384 75C277.088 74.5307 278.026 74.296 279.2 74.296C280.992 74.296 282.421 74.7973 283.488 75.8C284.554 76.8027 285.088 78.488 285.088 80.856V91H281.632V80.888C281.632 79.5653 281.354 78.616 280.8 78.04C280.266 77.4427 279.456 77.144 278.368 77.144C277.557 77.144 276.864 77.2933 276.288 77.592C275.733 77.8907 275.306 78.3493 275.008 78.968C274.709 79.5653 274.56 80.3653 274.56 81.368V91ZM296.583 77.464H293.095V88.184H296.583V91H294.183C292.839 91 291.74 90.6907 290.887 90.072C290.055 89.4533 289.639 88.408 289.639 86.936V77.464H286.951V74.648H289.639V69.88H293.095V74.648H296.583V77.464ZM302.655 91H299.199V74.648H302.655V77.272C303.081 76.3973 303.636 75.7467 304.319 75.32C305.023 74.872 305.887 74.648 306.911 74.648H308.255V77.464H306.271C305.076 77.464 304.169 77.7947 303.551 78.456C302.953 79.096 302.655 80.0987 302.655 81.464V91ZM313.327 74.648V91H309.871V74.648H313.327ZM309.743 68.024H313.487V71.768H309.743V68.024ZM318.189 81.432H328.269C328.226 79.9813 327.853 78.8933 327.149 78.168C326.466 77.4213 325.463 77.048 324.141 77.048C322.605 77.048 321.485 77.5173 320.781 78.456C320.098 79.3733 319.757 80.8133 319.757 82.776C319.757 84.76 320.098 86.2213 320.781 87.16C321.463 88.0987 322.658 88.568 324.365 88.568C325.538 88.568 326.37 88.3973 326.861 88.056C327.373 87.6933 327.714 87.2027 327.885 86.584H331.469C331.319 87.5013 330.946 88.3227 330.349 89.048C329.773 89.752 328.983 90.3067 327.981 90.712C326.999 91.1173 325.794 91.32 324.365 91.32C321.741 91.32 319.735 90.584 318.349 89.112C316.983 87.64 316.301 85.5493 316.301 82.84C316.301 80.088 316.983 77.976 318.349 76.504C319.735 75.032 321.666 74.296 324.141 74.296C325.613 74.296 326.914 74.5947 328.045 75.192C329.175 75.7893 330.061 76.7173 330.701 77.976C331.362 79.2133 331.693 80.824 331.693 82.808V83.896H318.157L318.189 81.432ZM343.549 79.256C343.443 78.4667 343.155 77.9227 342.685 77.624C342.216 77.304 341.523 77.144 340.605 77.144C339.667 77.144 338.931 77.304 338.397 77.624C337.864 77.944 337.597 78.392 337.597 78.968C337.597 79.5013 337.789 79.928 338.173 80.248C338.557 80.568 339.176 80.8347 340.029 81.048L342.429 81.656C344.008 82.04 345.203 82.616 346.013 83.384C346.824 84.1307 347.229 85.112 347.229 86.328C347.229 87.8427 346.643 89.0587 345.469 89.976C344.296 90.872 342.589 91.32 340.349 91.32C338.28 91.32 336.669 90.8933 335.517 90.04C334.365 89.1653 333.715 87.896 333.565 86.232H337.149C337.256 87.0213 337.533 87.5973 337.981 87.96C338.451 88.3013 339.219 88.472 340.285 88.472C341.587 88.472 342.483 88.3013 342.973 87.96C343.464 87.5973 343.709 87.1067 343.709 86.488C343.709 85.9333 343.517 85.4853 343.133 85.144C342.771 84.8027 342.173 84.536 341.341 84.344L338.941 83.736C337.363 83.352 336.168 82.776 335.357 82.008C334.547 81.24 334.141 80.28 334.141 79.128C334.141 77.656 334.707 76.4827 335.837 75.608C336.989 74.7333 338.579 74.296 340.605 74.296C342.547 74.296 344.061 74.7333 345.149 75.608C346.259 76.4613 346.845 77.6773 346.909 79.256H343.549ZM218.336 109.648H221.792V111.824C222.347 110.971 222.976 110.341 223.68 109.936C224.384 109.531 225.195 109.328 226.112 109.328C227.328 109.328 228.32 109.573 229.088 110.064C229.877 110.555 230.464 111.333 230.848 112.4H230.912C231.467 111.376 232.139 110.608 232.928 110.096C233.739 109.584 234.72 109.328 235.872 109.328C236.619 109.328 237.333 109.435 238.016 109.648C238.699 109.861 239.296 110.224 239.808 110.736C240.32 111.227 240.725 111.888 241.024 112.72C241.323 113.552 241.472 114.587 241.472 115.824V126H238.016V115.984C238.016 114.619 237.771 113.648 237.28 113.072C236.811 112.475 236.032 112.176 234.944 112.176C233.835 112.176 233.003 112.517 232.448 113.2C231.893 113.883 231.616 114.971 231.616 116.464V126H228.192V115.984C228.192 115.067 228.085 114.331 227.872 113.776C227.659 113.2 227.328 112.795 226.88 112.56C226.453 112.304 225.899 112.176 225.216 112.176C224.064 112.176 223.2 112.517 222.624 113.2C222.069 113.883 221.792 114.971 221.792 116.464V126H218.336V109.648ZM260.165 126H258.117C257.221 126 256.528 125.691 256.037 125.072C255.568 124.453 255.323 123.579 255.301 122.448L255.845 122.544C255.483 123.653 254.864 124.56 253.989 125.264C253.136 125.968 251.92 126.32 250.341 126.32C249.125 126.32 248.069 126.139 247.173 125.776C246.299 125.413 245.616 124.869 245.125 124.144C244.656 123.397 244.421 122.437 244.421 121.264C244.421 120.283 244.603 119.472 244.965 118.832C245.349 118.171 245.851 117.659 246.469 117.296C247.109 116.933 247.813 116.677 248.581 116.528C249.349 116.357 250.128 116.272 250.917 116.272H255.301V114.992C255.301 113.989 255.035 113.253 254.501 112.784C253.989 112.293 253.125 112.048 251.909 112.048C250.8 112.048 249.979 112.24 249.445 112.624C248.912 113.008 248.592 113.616 248.485 114.448H245.029C245.115 113.339 245.467 112.4 246.085 111.632C246.725 110.864 247.557 110.288 248.581 109.904C249.605 109.499 250.747 109.296 252.005 109.296C252.752 109.296 253.52 109.381 254.309 109.552C255.099 109.723 255.824 110.021 256.485 110.448C257.147 110.875 257.68 111.483 258.085 112.272C258.512 113.04 258.725 114.032 258.725 115.248V123.152H260.165V126ZM247.781 121.232C247.781 122.043 248.016 122.64 248.485 123.024C248.955 123.408 249.701 123.6 250.725 123.6C252.155 123.6 253.275 123.259 254.085 122.576C254.896 121.893 255.301 120.997 255.301 119.888V118.736H250.949C249.883 118.736 249.083 118.949 248.549 119.376C248.037 119.781 247.781 120.4 247.781 121.232ZM266.203 109.648V132.464H262.747V109.648H266.203ZM271.451 126.32C269.937 126.32 268.699 125.947 267.739 125.2C266.779 124.453 266.086 123.451 265.659 122.192C265.233 120.912 265.019 119.461 265.019 117.84C265.019 116.219 265.233 114.768 265.659 113.488C266.086 112.208 266.779 111.195 267.739 110.448C268.699 109.701 269.937 109.328 271.451 109.328C272.881 109.328 274.118 109.648 275.163 110.288C276.209 110.907 277.019 111.845 277.595 113.104C278.193 114.341 278.491 115.92 278.491 117.84C278.491 120.635 277.862 122.747 276.603 124.176C275.345 125.605 273.627 126.32 271.451 126.32ZM270.555 123.472C272.113 123.472 273.243 122.992 273.947 122.032C274.673 121.072 275.035 119.675 275.035 117.84C275.035 116.005 274.673 114.608 273.947 113.648C273.243 112.667 272.113 112.176 270.555 112.176C269.062 112.176 267.963 112.667 267.259 113.648C266.555 114.608 266.203 116.005 266.203 117.84C266.203 119.675 266.555 121.072 267.259 122.032C267.963 122.992 269.062 123.472 270.555 123.472ZM303.113 126L292.425 113.04C291.955 112.464 291.529 111.92 291.145 111.408C290.782 110.875 290.494 110.331 290.281 109.776C290.089 109.2 289.993 108.581 289.993 107.92C289.993 106.32 290.505 105.115 291.529 104.304C292.574 103.472 293.982 103.056 295.753 103.056C296.947 103.056 297.95 103.28 298.761 103.728C299.571 104.155 300.179 104.741 300.585 105.488C301.011 106.235 301.225 107.077 301.225 108.016C301.225 109.083 300.99 110 300.521 110.768C300.073 111.536 299.315 112.325 298.249 113.136L294.089 116.304C293.577 116.667 293.129 117.04 292.745 117.424C292.382 117.808 292.105 118.213 291.913 118.64C291.721 119.067 291.625 119.547 291.625 120.08C291.625 120.763 291.763 121.36 292.041 121.872C292.339 122.384 292.766 122.779 293.321 123.056C293.897 123.312 294.59 123.44 295.401 123.44C296.83 123.44 298.057 123.109 299.081 122.448C300.105 121.765 300.926 120.795 301.545 119.536C302.185 118.277 302.611 116.773 302.825 115.024H305.865C305.438 117.477 304.777 119.547 303.881 121.232C302.985 122.917 301.822 124.187 300.393 125.04C298.985 125.893 297.257 126.32 295.209 126.32C293.737 126.32 292.478 126.085 291.433 125.616C290.387 125.125 289.587 124.432 289.033 123.536C288.499 122.64 288.233 121.584 288.233 120.368C288.233 119.365 288.382 118.523 288.681 117.84C288.979 117.136 289.417 116.496 289.993 115.92C290.569 115.323 291.273 114.747 292.105 114.192L296.233 111.28C296.873 110.811 297.353 110.331 297.673 109.84C297.993 109.328 298.153 108.773 298.153 108.176C298.153 107.472 297.961 106.917 297.577 106.512C297.214 106.085 296.606 105.872 295.753 105.872C294.857 105.872 294.195 106.075 293.769 106.48C293.363 106.885 293.161 107.451 293.161 108.176C293.161 108.709 293.321 109.243 293.641 109.776C293.961 110.309 294.377 110.885 294.889 111.504L306.921 126H303.113ZM330.934 126H328.886C327.99 126 327.297 125.691 326.806 125.072C326.337 124.453 326.091 123.579 326.07 122.448L326.614 122.544C326.251 123.653 325.633 124.56 324.758 125.264C323.905 125.968 322.689 126.32 321.11 126.32C319.894 126.32 318.838 126.139 317.942 125.776C317.067 125.413 316.385 124.869 315.894 124.144C315.425 123.397 315.19 122.437 315.19 121.264C315.19 120.283 315.371 119.472 315.734 118.832C316.118 118.171 316.619 117.659 317.238 117.296C317.878 116.933 318.582 116.677 319.35 116.528C320.118 116.357 320.897 116.272 321.686 116.272H326.07V114.992C326.07 113.989 325.803 113.253 325.27 112.784C324.758 112.293 323.894 112.048 322.678 112.048C321.569 112.048 320.747 112.24 320.214 112.624C319.681 113.008 319.361 113.616 319.254 114.448H315.798C315.883 113.339 316.235 112.4 316.854 111.632C317.494 110.864 318.326 110.288 319.35 109.904C320.374 109.499 321.515 109.296 322.774 109.296C323.521 109.296 324.289 109.381 325.078 109.552C325.867 109.723 326.593 110.021 327.254 110.448C327.915 110.875 328.449 111.483 328.854 112.272C329.281 113.04 329.494 114.032 329.494 115.248V123.152H330.934V126ZM318.55 121.232C318.55 122.043 318.785 122.64 319.254 123.024C319.723 123.408 320.47 123.6 321.494 123.6C322.923 123.6 324.043 123.259 324.854 122.576C325.665 121.893 326.07 120.997 326.07 119.888V118.736H321.718C320.651 118.736 319.851 118.949 319.318 119.376C318.806 119.781 318.55 120.4 318.55 121.232ZM336.972 109.648V132.464H333.516V109.648H336.972ZM342.22 126.32C340.705 126.32 339.468 125.947 338.508 125.2C337.548 124.453 336.855 123.451 336.428 122.192C336.001 120.912 335.788 119.461 335.788 117.84C335.788 116.219 336.001 114.768 336.428 113.488C336.855 112.208 337.548 111.195 338.508 110.448C339.468 109.701 340.705 109.328 342.22 109.328C343.649 109.328 344.887 109.648 345.932 110.288C346.977 110.907 347.788 111.845 348.364 113.104C348.961 114.341 349.26 115.92 349.26 117.84C349.26 120.635 348.631 122.747 347.372 124.176C346.113 125.605 344.396 126.32 342.22 126.32ZM341.324 123.472C342.881 123.472 344.012 122.992 344.716 122.032C345.441 121.072 345.804 119.675 345.804 117.84C345.804 116.005 345.441 114.608 344.716 113.648C344.012 112.667 342.881 112.176 341.324 112.176C339.831 112.176 338.732 112.667 338.028 113.648C337.324 114.608 336.972 116.005 336.972 117.84C336.972 119.675 337.324 121.072 338.028 122.032C338.732 122.992 339.831 123.472 341.324 123.472ZM355.926 109.648V132.464H352.47V109.648H355.926ZM361.174 126.32C359.659 126.32 358.422 125.947 357.462 125.2C356.502 124.453 355.808 123.451 355.382 122.192C354.955 120.912 354.742 119.461 354.742 117.84C354.742 116.219 354.955 114.768 355.382 113.488C355.808 112.208 356.502 111.195 357.462 110.448C358.422 109.701 359.659 109.328 361.174 109.328C362.603 109.328 363.84 109.648 364.886 110.288C365.931 110.907 366.742 111.845 367.318 113.104C367.915 114.341 368.214 115.92 368.214 117.84C368.214 120.635 367.584 122.747 366.326 124.176C365.067 125.605 363.35 126.32 361.174 126.32ZM360.278 123.472C361.835 123.472 362.966 122.992 363.67 122.032C364.395 121.072 364.758 119.675 364.758 117.84C364.758 116.005 364.395 114.608 363.67 113.648C362.966 112.667 361.835 112.176 360.278 112.176C358.784 112.176 357.686 112.667 356.982 113.648C356.278 114.608 355.926 116.005 355.926 117.84C355.926 119.675 356.278 121.072 356.982 122.032C357.686 122.992 358.784 123.472 360.278 123.472ZM385.475 126.32C382.809 126.32 380.803 125.584 379.459 124.112C378.115 122.64 377.443 120.539 377.443 117.808C377.443 115.099 378.126 113.008 379.491 111.536C380.878 110.043 382.851 109.296 385.411 109.296C386.713 109.296 387.886 109.541 388.931 110.032C389.977 110.523 390.809 111.184 391.427 112.016C392.067 112.848 392.419 113.797 392.483 114.864H389.027C388.963 114.139 388.665 113.509 388.131 112.976C387.598 112.421 386.702 112.144 385.443 112.144C383.758 112.144 382.574 112.635 381.891 113.616C381.23 114.597 380.899 115.995 380.899 117.808C380.899 119.621 381.23 121.019 381.891 122C382.574 122.981 383.758 123.472 385.443 123.472C386.638 123.472 387.513 123.237 388.067 122.768C388.643 122.299 388.974 121.659 389.059 120.848H392.547C392.483 121.808 392.163 122.704 391.587 123.536C391.011 124.368 390.201 125.04 389.155 125.552C388.131 126.064 386.905 126.32 385.475 126.32ZM405.884 109.648H409.34V126H405.884V123.76C405.394 124.549 404.786 125.179 404.06 125.648C403.356 126.096 402.418 126.32 401.244 126.32C399.452 126.32 398.023 125.819 396.956 124.816C395.89 123.813 395.356 122.139 395.356 119.792V109.648H398.78V119.728C398.78 121.051 399.058 122.011 399.612 122.608C400.188 123.184 401.02 123.472 402.108 123.472C402.919 123.472 403.602 123.323 404.156 123.024C404.711 122.725 405.138 122.267 405.436 121.648C405.735 121.029 405.884 120.229 405.884 119.248V109.648ZM422.271 114.256C422.164 113.467 421.876 112.923 421.407 112.624C420.937 112.304 420.244 112.144 419.327 112.144C418.388 112.144 417.652 112.304 417.119 112.624C416.585 112.944 416.319 113.392 416.319 113.968C416.319 114.501 416.511 114.928 416.895 115.248C417.279 115.568 417.897 115.835 418.751 116.048L421.151 116.656C422.729 117.04 423.924 117.616 424.735 118.384C425.545 119.131 425.951 120.112 425.951 121.328C425.951 122.843 425.364 124.059 424.191 124.976C423.017 125.872 421.311 126.32 419.071 126.32C417.001 126.32 415.391 125.893 414.239 125.04C413.087 124.165 412.436 122.896 412.287 121.232H415.871C415.977 122.021 416.255 122.597 416.703 122.96C417.172 123.301 417.94 123.472 419.007 123.472C420.308 123.472 421.204 123.301 421.695 122.96C422.185 122.597 422.431 122.107 422.431 121.488C422.431 120.933 422.239 120.485 421.855 120.144C421.492 119.803 420.895 119.536 420.063 119.344L417.663 118.736C416.084 118.352 414.889 117.776 414.079 117.008C413.268 116.24 412.863 115.28 412.863 114.128C412.863 112.656 413.428 111.483 414.559 110.608C415.711 109.733 417.3 109.296 419.327 109.296C421.268 109.296 422.783 109.733 423.871 110.608C424.98 111.461 425.567 112.677 425.631 114.256H422.271ZM436.635 112.464H433.147V123.184H436.635V126H434.235C432.891 126 431.792 125.691 430.939 125.072C430.107 124.453 429.691 123.408 429.691 121.936V112.464H427.003V109.648H429.691V104.88H433.147V109.648H436.635V112.464ZM445.663 126.32C443.188 126.32 441.247 125.595 439.839 124.144C438.431 122.672 437.727 120.571 437.727 117.84C437.727 115.109 438.431 113.008 439.839 111.536C441.247 110.043 443.188 109.296 445.663 109.296C447.306 109.296 448.714 109.627 449.887 110.288C451.082 110.949 451.999 111.92 452.639 113.2C453.3 114.459 453.631 116.005 453.631 117.84C453.631 120.592 452.927 122.693 451.519 124.144C450.111 125.595 448.159 126.32 445.663 126.32ZM445.695 123.472C447.231 123.472 448.362 122.992 449.087 122.032C449.812 121.072 450.175 119.675 450.175 117.84C450.175 116.005 449.812 114.597 449.087 113.616C448.362 112.635 447.231 112.144 445.695 112.144C444.138 112.144 442.996 112.635 442.271 113.616C441.546 114.597 441.183 116.005 441.183 117.84C441.183 119.675 441.546 121.072 442.271 122.032C442.996 122.992 444.138 123.472 445.695 123.472ZM456.642 109.648H460.098V111.824C460.653 110.971 461.282 110.341 461.986 109.936C462.69 109.531 463.501 109.328 464.418 109.328C465.634 109.328 466.626 109.573 467.394 110.064C468.184 110.555 468.77 111.333 469.154 112.4H469.218C469.773 111.376 470.445 110.608 471.234 110.096C472.045 109.584 473.026 109.328 474.178 109.328C474.925 109.328 475.64 109.435 476.322 109.648C477.005 109.861 477.602 110.224 478.114 110.736C478.626 111.227 479.032 111.888 479.33 112.72C479.629 113.552 479.778 114.587 479.778 115.824V126H476.322V115.984C476.322 114.619 476.077 113.648 475.586 113.072C475.117 112.475 474.338 112.176 473.25 112.176C472.141 112.176 471.309 112.517 470.754 113.2C470.2 113.883 469.922 114.971 469.922 116.464V126H466.498V115.984C466.498 115.067 466.392 114.331 466.178 113.776C465.965 113.2 465.634 112.795 465.186 112.56C464.76 112.304 464.205 112.176 463.522 112.176C462.37 112.176 461.506 112.517 460.93 113.2C460.376 113.883 460.098 114.971 460.098 116.464V126H456.642V109.648ZM487.146 109.648V126H483.69V109.648H487.146ZM483.562 103.024H487.306V106.768H483.562V103.024ZM489.991 123.6L500.967 110.416L501.255 112.464H490.311V109.648H503.559V112.08L492.679 125.168L492.583 123.184H503.879V126H489.991V123.6ZM510.178 109.648V126H506.722V109.648H510.178ZM506.594 103.024H510.338V106.768H506.594V103.024ZM517.569 126H514.113V109.648H517.569V111.856C518.081 111.067 518.689 110.448 519.393 110C520.097 109.531 521.036 109.296 522.209 109.296C524.001 109.296 525.431 109.797 526.497 110.8C527.564 111.803 528.097 113.488 528.097 115.856V126H524.641V115.888C524.641 114.565 524.364 113.616 523.809 113.04C523.276 112.443 522.465 112.144 521.377 112.144C520.567 112.144 519.873 112.293 519.297 112.592C518.743 112.891 518.316 113.349 518.017 113.968C517.719 114.565 517.569 115.365 517.569 116.368V126ZM538.052 125.744C535.897 125.744 534.18 125.04 532.9 123.632C531.641 122.224 531.012 120.197 531.012 117.552C531.012 115.696 531.311 114.16 531.908 112.944C532.505 111.728 533.337 110.821 534.404 110.224C535.471 109.605 536.687 109.296 538.052 109.296C539.588 109.296 540.825 109.669 541.764 110.416C542.724 111.141 543.417 112.133 543.844 113.392C544.271 114.629 544.484 116.016 544.484 117.552C544.484 119.067 544.271 120.443 543.844 121.68C543.417 122.917 542.724 123.909 541.764 124.656C540.825 125.381 539.588 125.744 538.052 125.744ZM538.948 122.928C540.463 122.928 541.561 122.459 542.244 121.52C542.948 120.56 543.3 119.237 543.3 117.552C543.3 115.845 542.948 114.512 542.244 113.552C541.561 112.592 540.463 112.112 538.948 112.112C537.391 112.112 536.249 112.592 535.524 113.552C534.82 114.512 534.468 115.845 534.468 117.552C534.468 119.237 534.82 120.56 535.524 121.52C536.249 122.459 537.391 122.928 538.948 122.928ZM543.364 109.648H546.756V125.712H543.3V113.232L543.364 112.976V109.648ZM546.756 125.296C546.82 127.835 546.255 129.744 545.06 131.024C543.865 132.304 541.988 132.944 539.428 132.944C537.721 132.944 536.335 132.731 535.268 132.304C534.201 131.877 533.423 131.269 532.932 130.48C532.441 129.691 532.153 128.773 532.068 127.728H535.588C535.652 128.261 535.78 128.709 535.972 129.072C536.185 129.435 536.559 129.701 537.092 129.872C537.625 130.043 538.404 130.128 539.428 130.128C540.516 130.128 541.337 129.957 541.892 129.616C542.447 129.296 542.82 128.773 543.012 128.048C543.225 127.344 543.321 126.427 543.3 125.296H546.756Z" fill="#0078FF"/>
<defs>
<linearGradient id="paint0_linear_4484_12187" x1="76" y1="116" x2="76" y2="195" gradientUnits="userSpaceOnUse">
<stop stop-color="#0078FF"/>
<stop offset="1" stop-color="#004899" stop-opacity="0"/>
</linearGradient>
</defs>
</svg>
