<svg width="646" height="366" viewBox="0 0 646 366" fill="none" xmlns="http://www.w3.org/2000/svg">
<path opacity="0.2" d="M83.5025 268V247.36H34.7025V223.68C36.8358 226.133 39.5025 228.053 42.7025 229.44C45.9025 230.933 49.9025 231.68 54.7025 231.68C61.2092 231.68 66.7025 230.56 71.1825 228.32C75.7692 226.187 79.5025 223.307 82.3825 219.68C85.3692 216.053 87.5558 212.053 88.9425 207.68C90.3292 203.307 91.0225 198.987 91.0225 194.72C91.0225 186.613 89.3692 179.573 86.0625 173.6C82.7558 167.627 78.0625 162.987 71.9825 159.68C65.9025 156.48 58.6492 154.88 50.2225 154.88C41.6892 154.88 34.3825 156.32 28.3025 159.2C22.2225 162.187 17.4758 166.187 14.0625 171.2C10.7558 176.32 8.83583 182.133 8.30249 188.64H32.6225C33.3692 185.227 35.1292 182.24 37.9025 179.68C40.7825 177.227 44.7292 176 49.7425 176C53.4758 176 56.5158 176.747 58.8625 178.24C61.2092 179.733 62.9692 181.867 64.1425 184.64C65.3158 187.413 65.9025 190.72 65.9025 194.56C65.9025 200.213 64.4625 204.48 61.5825 207.36C58.8092 210.24 54.7558 211.68 49.4225 211.68C45.3692 211.68 42.0092 210.56 39.3425 208.32C36.6758 206.187 34.9158 203.627 34.0625 200.64H9.90249V268H83.5025ZM175.159 247.36H159.479V268H199.799V156H175.159V247.36ZM213.355 174.08L243.595 202.56C249.142 207.787 253.515 212.107 256.715 215.52C259.915 219.04 262.208 222.24 263.595 225.12C264.982 228.107 265.675 231.2 265.675 234.4C265.675 238.56 264.555 241.867 262.315 244.32C260.075 246.773 256.555 248 251.755 248C248.768 248 246.208 247.253 244.075 245.76C241.942 244.373 240.235 242.293 238.955 239.52C237.782 236.747 237.142 233.387 237.035 229.44H213.195C213.408 238.613 215.275 246.08 218.795 251.84C222.422 257.707 227.222 262.027 233.195 264.8C239.168 267.68 245.675 269.12 252.715 269.12C261.355 269.12 268.502 267.627 274.155 264.64C279.808 261.653 283.968 257.6 286.635 252.48C289.408 247.36 290.795 241.653 290.795 235.36C290.795 230.56 289.995 226.08 288.395 221.92C286.902 217.76 284.288 213.387 280.555 208.8C276.822 204.213 271.595 198.827 264.875 192.64L247.435 176.64H293.035V156H213.355V174.08Z" fill="url(#paint0_linear_4484_3486)"/>
<path d="M83.4181 40V60.64H34.6181V84.32C36.7515 81.8667 39.4181 79.9467 42.6181 78.56C45.8181 77.0667 49.8181 76.32 54.6181 76.32C61.1248 76.32 66.6181 77.44 71.0981 79.68C75.6848 81.8133 79.4181 84.6933 82.2981 88.32C85.2848 91.9467 87.4715 95.9467 88.8581 100.32C90.2448 104.693 90.9381 109.013 90.9381 113.28C90.9381 121.387 89.2848 128.427 85.9781 134.4C82.6715 140.373 77.9781 145.013 71.8981 148.32C65.8181 151.52 58.5648 153.12 50.1381 153.12C41.6048 153.12 34.2981 151.68 28.2181 148.8C22.1381 145.813 17.3915 141.813 13.9781 136.8C10.6715 131.68 8.75146 125.867 8.21813 119.36H32.5381C33.2848 122.773 35.0448 125.76 37.8181 128.32C40.6981 130.773 44.6448 132 49.6581 132C53.3915 132 56.4315 131.253 58.7781 129.76C61.1248 128.267 62.8848 126.133 64.0581 123.36C65.2315 120.587 65.8181 117.28 65.8181 113.44C65.8181 107.787 64.3781 103.52 61.4981 100.64C58.7248 97.76 54.6715 96.32 49.3381 96.32C45.2848 96.32 41.9248 97.44 39.2581 99.68C36.5915 101.813 34.8315 104.373 33.9781 107.36H9.81813V40H83.4181ZM133.707 24H157.867L119.307 168H95.1469L133.707 24ZM175.243 60.64H159.563V40H199.883V152H175.243V60.64ZM213.439 133.92L243.679 105.44C249.226 100.213 253.599 95.8933 256.799 92.48C259.999 88.96 262.293 85.76 263.679 82.88C265.066 79.8933 265.759 76.8 265.759 73.6C265.759 69.44 264.639 66.1333 262.399 63.68C260.159 61.2267 256.639 60 251.839 60C248.853 60 246.293 60.7467 244.159 62.24C242.026 63.6267 240.319 65.7067 239.039 68.48C237.866 71.2533 237.226 74.6133 237.119 78.56H213.279C213.493 69.3867 215.359 61.92 218.879 56.16C222.506 50.2933 227.306 45.9733 233.279 43.2C239.253 40.32 245.759 38.88 252.799 38.88C261.439 38.88 268.586 40.3733 274.239 43.36C279.893 46.3467 284.053 50.4 286.719 55.52C289.493 60.64 290.879 66.3467 290.879 72.64C290.879 77.44 290.079 81.92 288.479 86.08C286.986 90.24 284.373 94.6133 280.639 99.2C276.906 103.787 271.679 109.173 264.959 115.36L247.519 131.36H293.119V152H213.439V133.92Z" fill="#0078FF"/>
<rect x="335" y="44" width="309" height="106" rx="22" stroke="#0078FF" stroke-width="4"/>
<path d="M367.496 68.376H375.4C377.384 68.376 378.963 68.7067 380.136 69.368C381.331 70.008 382.184 70.8827 382.696 71.992C383.229 73.08 383.496 74.3067 383.496 75.672C383.496 77.0373 383.229 78.2747 382.696 79.384C382.184 80.4933 381.341 81.3787 380.168 82.04C378.995 82.7013 377.416 83.032 375.432 83.032H371.08V91H367.496V68.376ZM375.304 79.992C376.584 79.992 377.555 79.8213 378.216 79.48C378.877 79.1387 379.325 78.648 379.56 78.008C379.816 77.3467 379.944 76.568 379.944 75.672C379.944 74.7547 379.827 73.9867 379.592 73.368C379.357 72.728 378.899 72.248 378.216 71.928C377.555 71.5867 376.573 71.416 375.272 71.416H371.08V79.992H375.304ZM389.683 91H386.227V68.024H389.683V91ZM408.431 91H406.384C405.488 91 404.794 90.6907 404.304 90.072C403.834 89.4533 403.589 88.5787 403.568 87.448L404.111 87.544C403.749 88.6533 403.13 89.56 402.255 90.264C401.402 90.968 400.186 91.32 398.607 91.32C397.391 91.32 396.335 91.1387 395.439 90.776C394.565 90.4133 393.882 89.8693 393.391 89.144C392.922 88.3973 392.687 87.4373 392.687 86.264C392.687 85.2827 392.869 84.472 393.231 83.832C393.615 83.1707 394.117 82.6587 394.735 82.296C395.375 81.9333 396.079 81.6773 396.847 81.528C397.615 81.3573 398.394 81.272 399.183 81.272H403.568V79.992C403.568 78.9893 403.301 78.2533 402.767 77.784C402.256 77.2933 401.392 77.048 400.175 77.048C399.066 77.048 398.245 77.24 397.711 77.624C397.178 78.008 396.858 78.616 396.751 79.448H393.295C393.381 78.3387 393.733 77.4 394.351 76.632C394.991 75.864 395.823 75.288 396.847 74.904C397.871 74.4987 399.013 74.296 400.271 74.296C401.018 74.296 401.786 74.3813 402.575 74.552C403.365 74.7227 404.09 75.0213 404.752 75.448C405.413 75.8747 405.946 76.4827 406.351 77.272C406.778 78.04 406.991 79.032 406.991 80.248V88.152H408.431V91ZM396.047 86.232C396.047 87.0427 396.282 87.64 396.751 88.024C397.221 88.408 397.967 88.6 398.991 88.6C400.421 88.6 401.541 88.2587 402.351 87.576C403.162 86.8933 403.568 85.9973 403.568 84.888V83.736H399.215C398.149 83.736 397.349 83.9493 396.815 84.376C396.303 84.7813 396.047 85.4 396.047 86.232ZM414.31 91H410.854V74.648H414.31V76.856C414.822 76.0667 415.43 75.448 416.134 75C416.838 74.5307 417.776 74.296 418.95 74.296C420.742 74.296 422.171 74.7973 423.238 75.8C424.304 76.8027 424.838 78.488 424.838 80.856V91H421.382V80.888C421.382 79.5653 421.104 78.616 420.55 78.04C420.016 77.4427 419.206 77.144 418.118 77.144C417.307 77.144 416.614 77.2933 416.038 77.592C415.483 77.8907 415.056 78.3493 414.758 78.968C414.459 79.5653 414.31 80.3653 414.31 81.368V91ZM436.332 77.464H432.844V88.184H436.332V91H433.932C432.588 91 431.49 90.6907 430.636 90.072C429.804 89.4533 429.388 88.408 429.388 86.936V77.464H426.7V74.648H429.388V69.88H432.844V74.648H436.332V77.464ZM447.186 94.392H443.89L451.25 67.16H454.514L447.186 94.392ZM382.568 117.2H376.968V114.16H386.12V116.976C386.12 118.661 385.789 120.219 385.128 121.648C384.488 123.056 383.475 124.187 382.088 125.04C380.723 125.893 378.931 126.32 376.712 126.32C373.448 126.32 370.931 125.328 369.16 123.344C367.411 121.339 366.536 118.448 366.536 114.672C366.536 110.917 367.411 108.048 369.16 106.064C370.931 104.059 373.448 103.056 376.712 103.056C378.376 103.056 379.869 103.355 381.192 103.952C382.515 104.549 383.592 105.403 384.424 106.512C385.277 107.621 385.789 108.965 385.96 110.544H382.376C382.141 109.051 381.555 107.931 380.616 107.184C379.677 106.437 378.376 106.064 376.712 106.064C374.536 106.064 372.893 106.779 371.784 108.208C370.675 109.616 370.12 111.771 370.12 114.672C370.12 117.573 370.675 119.739 371.784 121.168C372.893 122.576 374.536 123.28 376.712 123.28C377.693 123.28 378.525 123.163 379.208 122.928C379.891 122.672 380.445 122.341 380.872 121.936C381.32 121.509 381.661 121.04 381.896 120.528C382.152 119.995 382.323 119.44 382.408 118.864C382.515 118.288 382.568 117.733 382.568 117.2ZM392.746 126H389.29V103.024H392.746V126ZM403.718 126.32C401.243 126.32 399.302 125.595 397.894 124.144C396.486 122.672 395.782 120.571 395.782 117.84C395.782 115.109 396.486 113.008 397.894 111.536C399.302 110.043 401.243 109.296 403.718 109.296C405.361 109.296 406.769 109.627 407.942 110.288C409.137 110.949 410.054 111.92 410.694 113.2C411.355 114.459 411.686 116.005 411.686 117.84C411.686 120.592 410.982 122.693 409.574 124.144C408.166 125.595 406.214 126.32 403.718 126.32ZM403.75 123.472C405.286 123.472 406.417 122.992 407.142 122.032C407.867 121.072 408.23 119.675 408.23 117.84C408.23 116.005 407.867 114.597 407.142 113.616C406.417 112.635 405.286 112.144 403.75 112.144C402.193 112.144 401.051 112.635 400.326 113.616C399.601 114.597 399.238 116.005 399.238 117.84C399.238 119.675 399.601 121.072 400.326 122.032C401.051 122.992 402.193 123.472 403.75 123.472ZM418.153 103.024V126H414.697V103.024H418.153ZM423.401 126.32C421.887 126.32 420.649 125.947 419.689 125.2C418.751 124.453 418.057 123.451 417.609 122.192C417.161 120.912 416.937 119.461 416.937 117.84C416.937 116.197 417.161 114.736 417.609 113.456C418.057 112.176 418.751 111.163 419.689 110.416C420.649 109.669 421.887 109.296 423.401 109.296C424.809 109.296 426.036 109.605 427.081 110.224C428.127 110.843 428.948 111.781 429.545 113.04C430.143 114.277 430.441 115.877 430.441 117.84C430.441 120.635 429.812 122.747 428.553 124.176C427.295 125.605 425.577 126.32 423.401 126.32ZM422.505 123.504C424.063 123.504 425.193 123.024 425.897 122.064C426.623 121.083 426.985 119.664 426.985 117.808C426.985 115.973 426.623 114.565 425.897 113.584C425.193 112.603 424.063 112.112 422.505 112.112C420.991 112.112 419.881 112.603 419.177 113.584C418.495 114.565 418.153 115.973 418.153 117.808C418.153 119.664 418.495 121.083 419.177 122.064C419.881 123.024 420.991 123.504 422.505 123.504ZM448.152 126H446.104C445.208 126 444.514 125.691 444.024 125.072C443.554 124.453 443.309 123.579 443.288 122.448L443.832 122.544C443.469 123.653 442.85 124.56 441.976 125.264C441.122 125.968 439.906 126.32 438.328 126.32C437.112 126.32 436.056 126.139 435.16 125.776C434.285 125.413 433.602 124.869 433.112 124.144C432.642 123.397 432.408 122.437 432.408 121.264C432.408 120.283 432.589 119.472 432.952 118.832C433.336 118.171 433.837 117.659 434.456 117.296C435.096 116.933 435.8 116.677 436.568 116.528C437.336 116.357 438.114 116.272 438.904 116.272H443.288V114.992C443.288 113.989 443.021 113.253 442.488 112.784C441.976 112.293 441.112 112.048 439.896 112.048C438.786 112.048 437.965 112.24 437.432 112.624C436.898 113.008 436.578 113.616 436.472 114.448H433.016C433.101 113.339 433.453 112.4 434.072 111.632C434.712 110.864 435.544 110.288 436.568 109.904C437.592 109.499 438.733 109.296 439.992 109.296C440.738 109.296 441.506 109.381 442.296 109.552C443.085 109.723 443.81 110.021 444.472 110.448C445.133 110.875 445.666 111.483 446.072 112.272C446.498 113.04 446.712 114.032 446.712 115.248V123.152H448.152V126ZM435.768 121.232C435.768 122.043 436.002 122.64 436.472 123.024C436.941 123.408 437.688 123.6 438.712 123.6C440.141 123.6 441.261 123.259 442.072 122.576C442.882 121.893 443.288 120.997 443.288 119.888V118.736H438.936C437.869 118.736 437.069 118.949 436.536 119.376C436.024 119.781 435.768 120.4 435.768 121.232ZM454.03 126H450.574V103.024H454.03V126ZM477.357 109.232C477.25 108.165 476.823 107.376 476.077 106.864C475.351 106.331 474.285 106.064 472.877 106.064C471.362 106.064 470.242 106.363 469.517 106.96C468.813 107.536 468.461 108.347 468.461 109.392C468.461 109.947 468.589 110.416 468.845 110.8C469.122 111.163 469.463 111.472 469.869 111.728C470.274 111.963 470.701 112.155 471.149 112.304C471.618 112.453 472.045 112.592 472.429 112.72L474.541 113.328C475.159 113.499 475.853 113.723 476.621 114C477.41 114.277 478.157 114.661 478.861 115.152C479.565 115.621 480.141 116.229 480.589 116.976C481.058 117.701 481.293 118.608 481.293 119.696C481.293 121.04 480.973 122.213 480.333 123.216C479.714 124.219 478.775 125.008 477.517 125.584C476.258 126.139 474.69 126.416 472.813 126.416C470.103 126.416 468.045 125.84 466.637 124.688C465.25 123.515 464.482 121.925 464.333 119.92H467.949C468.034 120.752 468.269 121.424 468.653 121.936C469.058 122.448 469.613 122.821 470.317 123.056C471.021 123.291 471.853 123.408 472.813 123.408C474.391 123.408 475.607 123.088 476.461 122.448C477.314 121.787 477.741 120.848 477.741 119.632C477.741 118.949 477.559 118.416 477.197 118.032C476.834 117.627 476.343 117.296 475.725 117.04C475.127 116.784 474.455 116.549 473.709 116.336L471.021 115.568C469.143 115.035 467.661 114.299 466.573 113.36C465.485 112.4 464.941 111.12 464.941 109.52C464.941 108.133 465.282 106.96 465.965 106C466.647 105.04 467.586 104.315 468.781 103.824C469.997 103.312 471.394 103.056 472.973 103.056C474.615 103.056 476.013 103.323 477.165 103.856C478.338 104.368 479.234 105.093 479.853 106.032C480.493 106.949 480.823 108.016 480.845 109.232H477.357ZM494.46 109.648H497.916V126H494.46V123.76C493.97 124.549 493.362 125.179 492.636 125.648C491.932 126.096 490.994 126.32 489.82 126.32C488.028 126.32 486.599 125.819 485.532 124.816C484.466 123.813 483.932 122.139 483.932 119.792V109.648H487.356V119.728C487.356 121.051 487.634 122.011 488.188 122.608C488.764 123.184 489.596 123.472 490.684 123.472C491.495 123.472 492.178 123.323 492.732 123.024C493.287 122.725 493.714 122.267 494.012 121.648C494.311 121.029 494.46 120.229 494.46 119.248V109.648ZM505.376 103.024V126H501.92V103.024H505.376ZM510.624 126.32C509.109 126.32 507.872 125.947 506.912 125.2C505.973 124.453 505.28 123.451 504.832 122.192C504.384 120.912 504.16 119.461 504.16 117.84C504.16 116.197 504.384 114.736 504.832 113.456C505.28 112.176 505.973 111.163 506.912 110.416C507.872 109.669 509.109 109.296 510.624 109.296C512.032 109.296 513.258 109.605 514.304 110.224C515.349 110.843 516.17 111.781 516.768 113.04C517.365 114.277 517.664 115.877 517.664 117.84C517.664 120.635 517.034 122.747 515.776 124.176C514.517 125.605 512.8 126.32 510.624 126.32ZM509.728 123.504C511.285 123.504 512.416 123.024 513.12 122.064C513.845 121.083 514.208 119.664 514.208 117.808C514.208 115.973 513.845 114.565 513.12 113.584C512.416 112.603 511.285 112.112 509.728 112.112C508.213 112.112 507.104 112.603 506.4 113.584C505.717 114.565 505.376 115.973 505.376 117.808C505.376 119.664 505.717 121.083 506.4 122.064C507.104 123.024 508.213 123.504 509.728 123.504ZM529.582 114.256C529.475 113.467 529.187 112.923 528.718 112.624C528.249 112.304 527.555 112.144 526.638 112.144C525.699 112.144 524.963 112.304 524.43 112.624C523.897 112.944 523.63 113.392 523.63 113.968C523.63 114.501 523.822 114.928 524.206 115.248C524.59 115.568 525.209 115.835 526.062 116.048L528.462 116.656C530.041 117.04 531.235 117.616 532.046 118.384C532.857 119.131 533.262 120.112 533.262 121.328C533.262 122.843 532.675 124.059 531.502 124.976C530.329 125.872 528.622 126.32 526.382 126.32C524.313 126.32 522.702 125.893 521.55 125.04C520.398 124.165 519.747 122.896 519.598 121.232H523.182C523.289 122.021 523.566 122.597 524.014 122.96C524.483 123.301 525.251 123.472 526.318 123.472C527.619 123.472 528.515 123.301 529.006 122.96C529.497 122.597 529.742 122.107 529.742 121.488C529.742 120.933 529.55 120.485 529.166 120.144C528.803 119.803 528.206 119.536 527.374 119.344L524.974 118.736C523.395 118.352 522.201 117.776 521.39 117.008C520.579 116.24 520.174 115.28 520.174 114.128C520.174 112.656 520.739 111.483 521.87 110.608C523.022 109.733 524.611 109.296 526.638 109.296C528.579 109.296 530.094 109.733 531.182 110.608C532.291 111.461 532.878 112.677 532.942 114.256H529.582ZM539.658 109.648V126H536.202V109.648H539.658ZM536.074 103.024H539.818V106.768H536.074V103.024ZM554.951 103.024H558.407V126H554.951V103.024ZM549.703 126.32C547.549 126.32 545.831 125.605 544.551 124.176C543.293 122.747 542.663 120.635 542.663 117.84C542.663 115.877 542.962 114.277 543.559 113.04C544.157 111.781 544.989 110.843 546.055 110.224C547.122 109.605 548.338 109.296 549.703 109.296C551.239 109.296 552.477 109.669 553.415 110.416C554.375 111.163 555.069 112.176 555.495 113.456C555.943 114.736 556.167 116.197 556.167 117.84C556.167 119.461 555.943 120.912 555.495 122.192C555.069 123.451 554.375 124.453 553.415 125.2C552.477 125.947 551.239 126.32 549.703 126.32ZM550.599 123.504C552.114 123.504 553.213 123.024 553.895 122.064C554.599 121.083 554.951 119.664 554.951 117.808C554.951 115.973 554.599 114.565 553.895 113.584C553.213 112.603 552.114 112.112 550.599 112.112C549.042 112.112 547.901 112.603 547.175 113.584C546.471 114.565 546.119 115.973 546.119 117.808C546.119 119.664 546.471 121.083 547.175 122.064C547.901 123.024 549.042 123.504 550.599 123.504ZM565.816 109.648V126H562.36V109.648H565.816ZM562.232 103.024H565.976V106.768H562.232V103.024ZM584.533 126H582.485C581.589 126 580.895 125.691 580.405 125.072C579.935 124.453 579.69 123.579 579.669 122.448L580.213 122.544C579.85 123.653 579.231 124.56 578.357 125.264C577.503 125.968 576.287 126.32 574.709 126.32C573.493 126.32 572.437 126.139 571.541 125.776C570.666 125.413 569.983 124.869 569.493 124.144C569.023 123.397 568.789 122.437 568.789 121.264C568.789 120.283 568.97 119.472 569.333 118.832C569.717 118.171 570.218 117.659 570.837 117.296C571.477 116.933 572.181 116.677 572.949 116.528C573.717 116.357 574.495 116.272 575.285 116.272H579.669V114.992C579.669 113.989 579.402 113.253 578.869 112.784C578.357 112.293 577.493 112.048 576.277 112.048C575.167 112.048 574.346 112.24 573.813 112.624C573.279 113.008 572.959 113.616 572.853 114.448H569.397C569.482 113.339 569.834 112.4 570.453 111.632C571.093 110.864 571.925 110.288 572.949 109.904C573.973 109.499 575.114 109.296 576.373 109.296C577.119 109.296 577.887 109.381 578.677 109.552C579.466 109.723 580.191 110.021 580.853 110.448C581.514 110.875 582.047 111.483 582.453 112.272C582.879 113.04 583.093 114.032 583.093 115.248V123.152H584.533V126ZM572.149 121.232C572.149 122.043 572.383 122.64 572.853 123.024C573.322 123.408 574.069 123.6 575.093 123.6C576.522 123.6 577.642 123.259 578.453 122.576C579.263 121.893 579.669 120.997 579.669 119.888V118.736H575.317C574.25 118.736 573.45 118.949 572.917 119.376C572.405 119.781 572.149 120.4 572.149 121.232ZM590.411 126H586.955V109.648H590.411V112.272C590.837 111.397 591.392 110.747 592.075 110.32C592.779 109.872 593.643 109.648 594.667 109.648H596.011V112.464H594.027C592.832 112.464 591.925 112.795 591.307 113.456C590.709 114.096 590.411 115.099 590.411 116.464V126ZM609.703 109.648H613.095L607.495 128.432C607.026 129.947 606.343 130.992 605.447 131.568C604.572 132.165 603.463 132.464 602.119 132.464H599.431V129.616H601.831C602.62 129.616 603.218 129.467 603.623 129.168C604.05 128.891 604.38 128.336 604.615 127.504L609.703 109.648ZM600.263 109.648L603.911 120.752C604.103 121.285 604.263 121.712 604.391 122.032C604.519 122.352 604.658 122.587 604.807 122.736C604.978 122.885 605.191 122.96 605.447 122.96H607.687V125.872H604.967C604.22 125.872 603.612 125.755 603.143 125.52C602.674 125.285 602.268 124.88 601.927 124.304C601.586 123.707 601.234 122.875 600.871 121.808L596.775 109.648H600.263Z" fill="#0078FF"/>
<defs>
<linearGradient id="paint0_linear_4484_3486" x1="150.5" y1="116" x2="150.5" y2="195" gradientUnits="userSpaceOnUse">
<stop stop-color="#0078FF"/>
<stop offset="1" stop-color="#004899" stop-opacity="0"/>
</linearGradient>
</defs>
</svg>
