<svg width="1787" height="1080" viewBox="0 108 1787 1080" fill="none" xmlns="http://www.w3.org/2000/svg">
<path opacity="0.02" d="M898.5 1539.11C895.406 1540.9 891.594 1540.9 888.5 1539.11L124.706 1098.14C121.612 1096.35 119.706 1093.05 119.706 1089.48L119.706 207.523C119.706 203.951 121.612 200.65 124.706 198.863L888.5 -242.113C891.594 -243.9 895.406 -243.9 898.5 -242.113L1662.29 198.863C1665.39 200.65 1667.29 203.951 1667.29 207.524L1667.29 1089.48C1667.29 1093.05 1665.39 1096.35 1662.29 1098.14L898.5 1539.11Z" fill="#005FF9"/>
<path opacity="0.02" d="M898.5 1037.11C895.406 1038.9 891.594 1038.9 888.5 1037.11L559.451 847.137C556.357 845.35 554.451 842.049 554.451 838.476L554.451 458.524C554.451 454.951 556.357 451.65 559.451 449.863L888.5 259.887C891.594 258.1 895.406 258.1 898.5 259.887L1227.55 449.863C1230.64 451.65 1232.55 454.951 1232.55 458.524L1232.55 838.477C1232.55 842.049 1230.64 845.35 1227.55 847.137L898.5 1037.11Z" fill="#005FF9"/>
<path opacity="0.05" d="M898.5 895.113C895.406 896.9 891.594 896.9 888.5 895.113L682.427 776.137C679.333 774.35 677.427 771.049 677.427 767.476L677.427 529.523C677.427 525.951 679.333 522.65 682.427 520.863L888.5 401.887C891.594 400.1 895.406 400.1 898.5 401.887L1104.57 520.863C1107.67 522.65 1109.57 525.951 1109.57 529.524L1109.57 767.477C1109.57 771.049 1107.67 774.35 1104.57 776.137L898.5 895.113Z" fill="#005FF9"/>
<path opacity="0.11" d="M898.5 801.113C895.406 802.9 891.594 802.9 888.5 801.113L763.833 729.137C760.739 727.35 758.833 724.049 758.833 720.476L758.833 576.524C758.833 572.951 760.739 569.65 763.833 567.863L888.5 495.887C891.594 494.1 895.406 494.1 898.5 495.887L1023.17 567.863C1026.26 569.65 1028.17 572.951 1028.17 576.524L1028.17 720.477C1028.17 724.049 1026.26 727.35 1023.17 729.137L898.5 801.113Z" fill="#005FF9"/>
<path d="M888.503 530.85C891.597 529.063 895.409 529.063 898.503 530.85L992.892 585.345C995.986 587.131 997.892 590.433 997.892 594.005L997.892 702.996C997.892 706.569 995.986 709.87 992.892 711.657L898.503 766.152C895.409 767.938 891.597 767.938 888.503 766.152L794.114 711.656C791.02 709.87 789.114 706.569 789.114 702.996L789.114 594.005C789.114 590.433 791.02 587.131 794.114 585.345L888.503 530.85Z" fill="#005FF9"/>
</svg>
