<svg width="128" height="179" viewBox="0 0 128 179" fill="none" xmlns="http://www.w3.org/2000/svg">
<path opacity="0.1" fill-rule="evenodd" clip-rule="evenodd" d="M65.7576 179C45.8513 179 31.2378 172.108 31.0036 162.628C30.9099 159.309 32.6429 156.173 35.9685 153.512C41.9169 148.808 52.8302 146 65.2423 146C85.1017 146 99.7153 152.855 99.9963 162.336C100.09 165.654 98.4038 168.79 95.0783 171.452C89.1298 176.156 78.2165 179 65.8044 179H65.7576Z" fill="white"/>
<path opacity="0.2" fill-rule="evenodd" clip-rule="evenodd" d="M65.6605 170C53.2552 170 44.1482 165.614 44.0022 159.581C43.9439 157.47 45.0239 155.474 47.0963 153.78C50.8033 150.787 57.6043 149 65.3394 149C77.7156 149 86.8226 153.362 86.9977 159.396C87.0561 161.507 86.0053 163.503 83.9328 165.197C80.2258 168.19 73.4248 170 65.6897 170H65.6605Z" fill="white"/>
<path fill-rule="evenodd" clip-rule="evenodd" d="M72.9996 156C73.0458 158.209 69.2853 160 64.5848 160C59.8842 160 56.0467 158.209 56.0004 156C55.9542 153.791 59.7301 152 64.4152 152C69.1004 152 72.9533 153.791 72.9996 156Z" fill="white"/>
<path d="M35 113H93L66.0525 156H62.0601L35 113Z" fill="white"/>
<mask id="mask0_4508_25402" style="mask-type:alpha" maskUnits="userSpaceOnUse" x="0" y="0" width="128" height="128">
<circle cx="64" cy="64" r="64" fill="#035EF5"/>
</mask>
<g mask="url(#mask0_4508_25402)">
<circle cx="64" cy="64" r="64" fill="white"/>
</g>
<g clip-path="url(#clip0_4508_25402)">
<path d="M64.1276 88.8L73.9148 71.6583H54.3405L64.1276 88.8ZM64.1276 53.27C56.7873 53.27 50.8232 47.1925 50.8232 39.8683C50.8232 32.3883 56.7873 26.4667 64.1276 26.4667C71.468 26.4667 77.4321 32.5442 77.4321 39.8683C77.2791 47.1925 71.468 53.27 64.1276 53.27ZM64.1276 14C50.0586 14 38.7422 25.5317 38.7422 39.7125C38.7422 53.8933 50.0586 65.425 64.1276 65.425C78.1967 65.425 89.5131 53.8933 89.5131 39.7125C89.5131 25.5317 78.0438 14 64.1276 14Z" fill="#DF1B12"/>
</g>
<g clip-path="url(#clip1_4508_25402)">
<path d="M95.0692 104.549H97.1455V99.1553C97.1455 98.8275 97.1162 98.4997 97.0285 98.2017C96.6191 96.652 95.1569 95.609 93.5192 95.6686C92.7589 95.6984 92.057 95.9964 91.4136 96.503L91.3259 96.5626L91.2382 96.503C90.5948 95.9666 89.893 95.6984 89.1326 95.6686C87.5242 95.609 86.0327 96.652 85.6233 98.2017C85.5356 98.4997 85.5064 98.8275 85.5064 99.1553V104.549H87.5827V99.2447C87.5534 98.4997 88.1383 97.8739 88.8694 97.8441C89.6005 97.8142 90.2146 98.4103 90.2439 99.1553C90.2439 99.1851 90.2439 99.2149 90.2439 99.2447V104.549H92.3202V99.2447C92.3202 98.4997 92.9343 97.8739 93.6654 97.8739C94.0164 97.8739 94.3673 98.0229 94.6012 98.2911C94.8644 98.5593 94.9814 98.8871 94.9814 99.2447L95.0692 104.549ZM79.6868 102.433C78.4293 102.433 77.4058 101.39 77.4058 100.109C77.4058 98.8275 78.4293 97.7844 79.6868 97.7844C80.3009 97.7844 80.8566 98.0229 81.2952 98.4699C81.7339 98.9169 81.9678 99.4831 81.9678 100.109C81.9678 101.39 80.9443 102.433 79.6868 102.433ZM79.6868 95.6686C77.2888 95.6686 75.3294 97.6652 75.3294 100.109C75.3294 102.552 77.2888 104.549 79.6868 104.549C82.0848 104.549 84.0441 102.552 84.0441 100.109C84.0441 97.6652 82.114 95.6686 79.6868 95.6686ZM72.522 104.549H75.2125L74.0134 102.433H72.5805C71.9079 102.433 71.323 101.927 71.2645 101.331C71.2645 101.241 71.2645 101.152 71.2353 101.033V97.8441H73.9842L75.0662 95.9368H71.2645V92.4502L69.1882 93.9104V95.8176H67.8722V97.9335H69.1882V100.824C69.1882 100.824 69.1882 100.973 69.1882 101.003V101.152C69.2467 102.552 69.9485 103.596 71.206 104.221C71.5569 104.4 71.9079 104.49 72.3758 104.519L72.522 104.549ZM64.3044 104.549H66.3808V99.1553C66.3808 98.8275 66.3515 98.4997 66.2638 98.2017C65.8544 96.652 64.3922 95.609 62.7545 95.6686C61.9941 95.6984 61.2923 95.9964 60.6489 96.503L60.5612 96.5626L60.4735 96.503C59.8301 95.9666 59.1282 95.6984 58.3679 95.6686C56.7595 95.609 55.268 96.652 54.8586 98.2017C54.7709 98.4997 54.7416 98.8275 54.7416 99.1553V104.549H56.818V99.2447C56.8472 98.4997 57.4321 97.9037 58.1924 97.9037C58.9235 97.9335 59.4792 98.4997 59.5084 99.2447V104.549H61.5847V99.2149C61.614 98.4699 62.2281 97.8739 62.9592 97.8739C63.6903 97.9037 64.2459 98.4699 64.2752 99.2149L64.3044 104.549ZM48.9513 102.433C47.6938 102.433 46.6703 101.39 46.6703 100.109C46.6703 98.8275 47.6938 97.7844 48.9513 97.7844C49.5654 97.7844 50.1211 98.0229 50.5597 98.4699C50.9984 98.9169 51.2323 99.4831 51.2323 100.109C51.2323 101.39 50.2088 102.433 48.9513 102.433ZM48.9513 95.6686C46.5533 95.6686 44.5939 97.6652 44.5939 100.109C44.5939 102.552 46.5533 104.549 48.9513 104.549C51.3493 104.549 53.3087 102.552 53.3087 100.109C53.3087 97.6652 51.3493 95.6686 48.9513 95.6686ZM41.7865 104.549H44.477L43.278 102.433H41.845C41.1724 102.433 40.5875 101.927 40.529 101.331C40.529 101.241 40.529 101.152 40.4998 101.033V97.8441H43.2487L44.3308 95.9368H40.529V92.4502L38.4527 93.9104V95.8176H37.1367V97.9335H38.4527V100.824C38.4527 100.824 38.4527 100.973 38.4527 101.003V101.152C38.5112 102.552 39.213 103.596 40.4705 104.221C40.8215 104.4 41.1724 104.49 41.6403 104.519L41.7865 104.549Z" fill="black"/>
</g>
<defs>
<clipPath id="clip0_4508_25402">
<rect width="52" height="74.8" fill="white" transform="translate(38 14)"/>
</clipPath>
<clipPath id="clip1_4508_25402">
<rect width="62.7071" height="14.3041" fill="white" transform="translate(34.293 91.3477)"/>
</clipPath>
</defs>
</svg>
