<svg width="128" height="179" viewBox="0 0 128 179" fill="none" xmlns="http://www.w3.org/2000/svg">
<style>
  @keyframes pulse-outer {
    0%, 100% { opacity: 0; transform: scale(0.8); }
    50% { opacity: 0.1; transform: scale(1.2); }
  }
  @keyframes pulse-middle {
    0%, 100% { opacity: 0; transform: scale(0.85); }
    50% { opacity: 0.2; transform: scale(1.15); }
  }
  @keyframes pulse-inner {
    0%, 100% { opacity: 0.5; transform: scale(0.9); }
    50% { opacity: 1; transform: scale(1.1); }
  }
  .shadow-outer {
    animation: pulse-outer 2s ease-in-out infinite;
    transform-origin: 65px 162px;
  }
  .shadow-middle {
    animation: pulse-middle 2s ease-in-out infinite 0.3s;
    transform-origin: 65px 160px;
  }
  .shadow-inner {
    animation: pulse-inner 2s ease-in-out infinite 0.6s;
    transform-origin: 64px 156px;
  }
</style>
<path class="shadow-outer" fill-rule="evenodd" clip-rule="evenodd" d="M65.7576 179C45.8513 179 31.2378 172.108 31.0036 162.628C30.9099 159.309 32.6429 156.173 35.9685 153.512C41.9169 148.808 52.8302 146 65.2423 146C85.1017 146 99.7153 152.855 99.9963 162.336C100.09 165.654 98.4038 168.79 95.0783 171.452C89.1298 176.156 78.2165 179 65.8044 179H65.7576Z" fill="#0F0F0F"/>
<path class="shadow-middle" fill-rule="evenodd" clip-rule="evenodd" d="M65.6605 170C53.2552 170 44.1482 165.614 44.0022 159.581C43.9439 157.47 45.0239 155.474 47.0963 153.78C50.8033 150.787 57.6043 149 65.3394 149C77.7156 149 86.8226 153.362 86.9977 159.396C87.0561 161.507 86.0053 163.503 83.9328 165.197C80.2258 168.19 73.4248 170 65.6897 170H65.6605Z" fill="#0F0F0F"/>
<path class="shadow-inner" fill-rule="evenodd" clip-rule="evenodd" d="M72.9996 156C73.0458 158.209 69.2853 160 64.5848 160C59.8842 160 56.0467 158.209 56.0004 156C55.9542 153.791 59.7301 152 64.4152 152C69.1004 152 72.9533 153.791 72.9996 156Z" fill="#0F0F0F"/>
<path d="M35 113H93L66.0525 156H62.0601L35 113Z" fill="#0F0F0F"/>
<mask id="mask0_4374_19906" style="mask-type:alpha" maskUnits="userSpaceOnUse" x="0" y="0" width="128" height="128">
<circle cx="64" cy="64" r="64" fill="#035EF5"/>
</mask>
<g mask="url(#mask0_4374_19906)">
<circle cx="64" cy="64" r="64" fill="#0F0F0F"/>
<path d="M47.9592 85.582L38.541 95.0002L29.082 85.582H47.9592Z" fill="#1EF3E4"/>
<path d="M61.735 64.0946C59.778 61.7706 59.8595 60.5068 61.0827 59.2836C62.5505 57.8159 64.059 58.4274 65.7714 60.0582L61.735 64.0946ZM81.9168 38.4494C83.3846 36.9816 84.8932 37.5932 86.6056 39.2241L82.5693 43.2605C80.6122 40.9365 80.6937 39.6726 81.9168 38.4494ZM94.1075 42.5673C92.2728 45.299 89.0926 49.7431 85.7494 46.3998L94.2298 37.9602C93.4552 37.1447 92.8844 36.4516 92.436 36.0439C87.8695 31.4775 82.7323 31.396 78.6959 35.4323C76.005 38.1232 75.3119 41.1811 76.0866 44.1167L73.4364 41.0588C72.6618 41.4665 69.4001 44.3613 71.8463 48.683L68.8292 46.1552L64.7928 50.1915L70.2155 55.6142C66.016 52.2709 61.4904 52.5971 57.8618 56.2258C53.9885 60.099 54.2331 64.8285 57.1686 68.7018L56.5978 68.131C52.7653 64.2985 48.5659 65.644 46.4866 67.7233C44.8965 69.3134 43.918 71.515 44.3256 73.0643L35.9675 64.7062L31.5234 69.1502L47.9543 85.5812H56.761L50.849 79.6692C47.7504 76.4891 47.6689 74.8175 49.1775 73.3089C50.6453 71.8411 52.3168 72.7789 55.3339 75.7552L61.205 81.6263L65.6083 77.223L60.0634 71.6781C64.059 74.6952 68.8701 74.8583 73.1511 70.618C73.1918 70.5773 73.1918 70.5773 73.2325 70.5365C75.842 68.131 76.6166 65.7663 76.6166 65.7663L73.2734 63.5238C71.4387 66.2555 68.2585 70.6996 64.9152 67.3564L73.3957 58.8758L78.6959 64.1762L83.3031 59.569L76.6982 52.801C73.5995 49.7023 75.4342 46.8076 76.7389 45.7068C77.3505 46.9706 78.2067 48.1938 79.3482 49.3353C83.6292 53.6163 89.1742 54.4725 94.0259 49.6615C94.0668 49.6208 94.0668 49.6208 94.1075 49.58C96.717 47.1745 97.4916 44.8097 97.4916 44.8097L94.1075 42.5673Z" fill="white"/>
</g>
</svg>
