<svg width="242" height="242" viewBox="0 0 242 242" fill="none" xmlns="http://www.w3.org/2000/svg">
<path d="M115.538 2.88677C118.632 1.10044 122.444 1.10044 125.538 2.88677L219.927 57.3822C223.021 59.1686 224.927 62.4698 224.927 66.0425L224.927 175.033C224.927 178.606 223.021 181.907 219.927 183.694L125.538 238.189C122.444 239.975 118.632 239.975 115.538 238.189L21.149 183.694C18.055 181.907 16.149 178.606 16.149 175.033L16.149 66.0425C16.149 62.4698 18.055 59.1685 21.149 57.3822L115.538 2.88677Z" fill="#005FF9"/>
<path d="M42.9844 136.488H49.8352V120.015L58.0914 135.101L66.8746 119.148V136.488H73.9011V127.818C73.3741 127.125 72.4958 124.697 72.4958 121.923C72.4958 118.594 73.3741 115.912 73.9011 114.987V106.317H65.2936L58.0914 120.709L50.7136 106.317H42.9844V136.488Z" fill="white"/>
<path d="M122.384 106.317H104.818V110.825C105.521 111.242 106.165 112.386 106.399 112.906H109.736V136.661H117.466V112.906H122.384V106.317Z" fill="white"/>
<path d="M146.626 106.317H123.438V112.906H139.248V117.761H126.424C135.981 125.945 138.018 133.771 137.843 136.661H144.342C143.639 130.419 140.653 125.853 139.248 124.35H146.626V106.317Z" fill="white"/>
<path d="M171.043 106.317H147.855V112.906H171.043V106.317Z" fill="white"/>
<path d="M171.043 117.761H147.855V136.661H171.043V129.725H156.287V124.35H171.043V117.761Z" fill="white"/>
<path d="M180.177 106.317H172.273L180.353 120.015L184.569 113.426L180.177 106.317Z" fill="white"/>
<path d="M172.273 136.661L190.015 106.317H198.095L189.136 121.402L198.095 136.661H190.015L185.272 128.338L180.353 136.661H172.273Z" fill="white"/>
<path fill-rule="evenodd" clip-rule="evenodd" d="M90.4991 138.291C99.9097 138.291 107.538 130.761 107.538 121.472C107.538 112.183 99.9097 104.652 90.4991 104.652C81.0885 104.652 73.4597 112.183 73.4597 121.472C73.4597 130.761 81.0885 138.291 90.4991 138.291ZM90.5497 131.294C96.0796 131.294 100.563 126.869 100.563 121.41C100.563 115.952 96.0796 111.527 90.5497 111.527C85.0198 111.527 80.5369 115.952 80.5369 121.41C80.5369 126.869 85.0198 131.294 90.5497 131.294Z" fill="white"/>
</svg>
