<svg width="66" height="94" viewBox="0 0 66 94" fill="none" xmlns="http://www.w3.org/2000/svg">
<path opacity="0.1" fill-rule="evenodd" clip-rule="evenodd" d="M34.4215 93.3591C22.8298 93.3591 14.3201 89.4103 14.1837 83.9781C14.1292 82.0769 15.1384 80.2801 17.0749 78.7549C20.5387 76.0597 26.8937 74.4509 34.1215 74.4509C45.686 74.4509 54.1957 78.3788 54.3593 83.811C54.4139 85.7122 53.432 87.509 51.4955 89.0342C48.0316 91.7294 41.6766 93.3591 34.4488 93.3591H34.4215Z" fill="#005FF9"/>
<path opacity="0.2" fill-rule="evenodd" clip-rule="evenodd" d="M34.3679 88.6322C26.8674 88.6322 21.3611 85.9174 21.2728 82.1828C21.2375 80.8756 21.8905 79.6403 23.1436 78.5918C25.3849 76.7388 29.497 75.6328 34.1738 75.6328C41.6567 75.6328 47.1629 78.3332 47.2688 82.0678C47.3041 83.375 46.6688 84.6103 45.4157 85.6588C43.1744 87.5118 39.0623 88.6322 34.3855 88.6322H34.3679Z" fill="#005FF9"/>
<path fill-rule="evenodd" clip-rule="evenodd" d="M40.1788 80.3597C40.2174 82.3176 37.0805 83.905 33.1593 83.905C29.2382 83.905 26.037 82.3176 25.9984 80.3597C25.9598 78.4019 29.1096 76.8145 33.0179 76.8145C36.9262 76.8145 40.1402 78.4019 40.1788 80.3597Z" fill="#005FF9"/>
<path d="M17.7773 57.3982H47.2384L33.5504 79.24H31.5225L17.7773 57.3982Z" fill="#005FF9"/>
<mask id="mask0_4547_25533" style="mask-type:alpha" maskUnits="userSpaceOnUse" x="0" y="0" width="66" height="66">
<circle cx="32.5088" cy="32.5088" r="32.5088" fill="#035EF5"/>
</mask>
<g mask="url(#mask0_4547_25533)">
<circle cx="32.5088" cy="32.5088" r="32.5088" fill="#005FF9"/>
</g>
</svg>
