<svg width="1920" height="1080" viewBox="0 0 1920 1080" fill="none" xmlns="http://www.w3.org/2000/svg">
<g opacity="0.8">
<path d="M-145.809 236.397L90.9977 368.16C121.686 383.705 196.49 410.397 250.2 392.805C317.337 370.814 354.291 318.496 371.26 293.517C398.63 253.229 476.731 182.649 577.515 237.298C690.86 298.758 674.055 436.015 613.417 504.917C527.824 602.174 479.657 764.549 642.966 849.118C806.274 933.688 907.84 804.696 932.721 653.684C946.25 571.569 976.835 437.372 1033.49 369.042C1058.17 339.278 1100.81 295.037 1196.98 324.117C1293.14 353.197 1307.7 467.561 1264.46 563.815C1240.37 617.454 1193.25 723.188 1325.88 791.226C1421.12 840.087 1516.13 750.608 1541.79 674.758C1577.03 570.575 1692.18 543.689 1776.88 596.847C1863.31 651.089 1949.24 710.922 1982.06 738.347" stroke="url(#paint0_linear_4441_7403)" stroke-width="60" stroke-linejoin="round"/>
<path d="M-145.809 236.397L90.9977 368.16C121.686 383.705 196.49 410.397 250.2 392.805C317.337 370.814 357.127 320.203 371.26 293.517C385.393 266.831 468.061 182.47 577.515 237.298C686.968 292.125 674.055 436.015 613.417 504.917C527.824 602.174 479.657 764.549 642.966 849.118C806.274 933.688 907.84 804.696 932.72 653.684C946.25 571.569 976.835 437.372 1033.49 369.042C1058.17 339.278 1100.81 295.037 1196.98 324.117C1293.14 353.197 1307.7 467.561 1264.46 563.815C1240.37 617.454 1193.25 723.188 1325.88 791.226C1421.12 840.087 1516.13 750.608 1541.79 674.758C1577.03 570.575 1692.18 543.689 1776.88 596.847C1863.31 651.089 1949.24 710.922 1982.06 738.347" stroke="white" stroke-width="6" stroke-linejoin="round" stroke-dasharray="20 20"/>
</g>
<defs>
<linearGradient id="paint0_linear_4441_7403" x1="738.056" y1="-53.1047" x2="1091.65" y2="1026.43" gradientUnits="userSpaceOnUse">
<stop stop-color="#035EF5"/>
<stop offset="0.505" stop-color="#035EF5"/>
<stop offset="1" stop-color="#88CAFF"/>
</linearGradient>
</defs>
</svg>
